<svg xmlns="http://www.w3.org/2000/svg" xmlns:xlink="http://www.w3.org/1999/xlink" version="1.1" width="256" height="256" viewBox="0 0 256 256" xml:space="preserve">
<desc>Created with Fabric.js 1.7.22</desc>
<defs>
</defs>
<g transform="translate(128 128) scale(0.72 0.72)" style="">
	<g style="stroke: none; stroke-width: 0; stroke-dasharray: none; stroke-linecap: butt; stroke-linejoin: miter; stroke-miterlimit: 10; fill: none; fill-rule: nonzero; opacity: 1;" transform="translate(-175.05 -175.05000000000004) scale(3.89 3.89)" >
	<path d="M 51.47 70.205 H 38.53 c -0.679 5.067 -3.42 9.475 -7.355 12.364 h 27.65 C 54.891 79.68 52.149 75.271 51.47 70.205 z" style="stroke: none; stroke-width: 1; stroke-dasharray: none; stroke-linecap: butt; stroke-linejoin: miter; stroke-miterlimit: 10; fill: rgb(90,108,119); fill-rule: nonzero; opacity: 1;" transform=" matrix(1 0 0 1 0 0) " stroke-linecap="round" />
	<path d="M 89 57.781 H 1 V 11.852 c 0 -2.441 1.979 -4.42 4.42 -4.42 h 79.16 c 2.441 0 4.42 1.979 4.42 4.42 V 57.781 z" style="stroke: none; stroke-width: 1; stroke-dasharray: none; stroke-linecap: butt; stroke-linejoin: miter; stroke-miterlimit: 10; fill: rgb(199,216,226); fill-rule: nonzero; opacity: 1;" transform=" matrix(1 0 0 1 0 0) " stroke-linecap="round" />
	<path d="M 66.553 83.568 H 23.447 c -0.552 0 -1 -0.447 -1 -1 s 0.448 -1 1 -1 h 43.105 c 0.553 0 1 0.447 1 1 S 67.105 83.568 66.553 83.568 z" style="stroke: none; stroke-width: 1; stroke-dasharray: none; stroke-linecap: butt; stroke-linejoin: miter; stroke-miterlimit: 10; fill: rgb(112,130,141); fill-rule: nonzero; opacity: 1;" transform=" matrix(1 0 0 1 0 0) " stroke-linecap="round" />
	<path d="M 84.58 70.205 H 5.42 c -2.441 0 -4.42 -1.979 -4.42 -4.42 v -8.004 h 88 v 8.004 C 89 68.226 87.021 70.205 84.58 70.205 z" style="stroke: none; stroke-width: 1; stroke-dasharray: none; stroke-linecap: butt; stroke-linejoin: miter; stroke-miterlimit: 10; fill: rgb(112,130,141); fill-rule: nonzero; opacity: 1;" transform=" matrix(1 0 0 1 0 0) " stroke-linecap="round" />
	<path d="M 46.701 64.992 h -3.402 c -0.552 0 -1 -0.447 -1 -1 s 0.448 -1 1 -1 h 3.402 c 0.553 0 1 0.447 1 1 S 47.254 64.992 46.701 64.992 z" style="stroke: none; stroke-width: 1; stroke-dasharray: none; stroke-linecap: butt; stroke-linejoin: miter; stroke-miterlimit: 10; fill: rgb(199,216,226); fill-rule: nonzero; opacity: 1;" transform=" matrix(1 0 0 1 0 0) " stroke-linecap="round" />
	<path d="M 90 58.78 H 0 V 11.852 c 0 -2.989 2.431 -5.42 5.42 -5.42 h 79.16 c 2.988 0 5.42 2.431 5.42 5.42 V 58.78 z M 2 56.78 h 86 V 11.852 c 0 -1.886 -1.534 -3.42 -3.42 -3.42 H 5.42 C 3.534 8.432 2 9.966 2 11.852 V 56.78 z" style="stroke: none; stroke-width: 1; stroke-dasharray: none; stroke-linecap: butt; stroke-linejoin: miter; stroke-miterlimit: 10; fill: rgb(112,130,141); fill-rule: nonzero; opacity: 1;" transform=" matrix(1 0 0 1 0 0) " stroke-linecap="round" />
	<path d="M 84.58 71.204 H 5.42 c -2.989 0 -5.42 -2.432 -5.42 -5.42 V 56.78 h 90 v 9.004 C 90 68.772 87.568 71.204 84.58 71.204 z M 2 58.78 v 7.004 c 0 1.886 1.534 3.42 3.42 3.42 h 79.16 c 1.886 0 3.42 -1.534 3.42 -3.42 V 58.78 H 2 z" style="stroke: none; stroke-width: 1; stroke-dasharray: none; stroke-linecap: butt; stroke-linejoin: miter; stroke-miterlimit: 10; fill: rgb(112,130,141); fill-rule: nonzero; opacity: 1;" transform=" matrix(1 0 0 1 0 0) " stroke-linecap="round" />
	<path d="M 36.285 44.729 c -3.492 0 -4.498 -3.108 -5.307 -5.605 C 30.15 36.567 29.55 35 27.715 35 c -0.552 0 -1 -0.448 -1 -1 s 0.448 -1 1 -1 c 1.835 0 2.436 -1.567 3.264 -4.124 c 0.809 -2.498 1.815 -5.605 5.307 -5.605 c 0.552 0 1 0.448 1 1 s -0.448 1 -1 1 c -1.939 0 -2.557 1.604 -3.404 4.221 c -0.511 1.579 -1.103 3.405 -2.36 4.508 c 1.257 1.103 1.849 2.929 2.36 4.508 c 0.847 2.617 1.465 4.221 3.404 4.221 c 0.552 0 1 0.448 1 1 S 36.837 44.729 36.285 44.729 z" style="stroke: none; stroke-width: 1; stroke-dasharray: none; stroke-linecap: butt; stroke-linejoin: miter; stroke-miterlimit: 10; fill: rgb(112,130,141); fill-rule: nonzero; opacity: 1;" transform=" matrix(1 0 0 1 0 0) " stroke-linecap="round" />
	<path d="M 53.715 44.729 c -0.553 0 -1 -0.448 -1 -1 s 0.447 -1 1 -1 c 1.938 0 2.557 -1.604 3.404 -4.222 c 0.511 -1.578 1.103 -3.405 2.36 -4.507 c -1.258 -1.103 -1.85 -2.929 -2.36 -4.507 c -0.848 -2.618 -1.466 -4.222 -3.404 -4.222 c -0.553 0 -1 -0.448 -1 -1 s 0.447 -1 1 -1 c 3.492 0 4.498 3.108 5.307 5.605 C 59.85 31.433 60.45 33 62.285 33 c 0.553 0 1 0.448 1 1 s -0.447 1 -1 1 c -1.835 0 -2.436 1.567 -3.264 4.124 C 58.213 41.621 57.207 44.729 53.715 44.729 z" style="stroke: none; stroke-width: 1; stroke-dasharray: none; stroke-linecap: butt; stroke-linejoin: miter; stroke-miterlimit: 10; fill: rgb(112,130,141); fill-rule: nonzero; opacity: 1;" transform=" matrix(1 0 0 1 0 0) " stroke-linecap="round" />
	<path d="M 41.069 47.051 c -0.105 0 -0.212 -0.017 -0.318 -0.052 c -0.523 -0.176 -0.806 -0.742 -0.63 -1.266 l 8.08 -24.102 c 0.176 -0.523 0.743 -0.803 1.266 -0.63 c 0.524 0.176 0.807 0.743 0.631 1.266 l -8.08 24.102 C 41.877 46.787 41.487 47.051 41.069 47.051 z" style="stroke: none; stroke-width: 1; stroke-dasharray: none; stroke-linecap: butt; stroke-linejoin: miter; stroke-miterlimit: 10; fill: rgb(112,130,141); fill-rule: nonzero; opacity: 1;" transform=" matrix(1 0 0 1 0 0) " stroke-linecap="round" />
</g>
</g>
</svg>