<svg xmlns="http://www.w3.org/2000/svg" xmlns:xlink="http://www.w3.org/1999/xlink" version="1.1" width="256" height="256" viewBox="0 0 256 256" xml:space="preserve">
<desc>Created with Fabric.js 1.7.22</desc>
<defs>
</defs>
<g transform="translate(128 128) scale(0.72 0.72)" style="">
	<g style="stroke: none; stroke-width: 0; stroke-dasharray: none; stroke-linecap: butt; stroke-linejoin: miter; stroke-miterlimit: 10; fill: none; fill-rule: nonzero; opacity: 1;" transform="translate(-175.05 -175.05000000000004) scale(3.89 3.89)" >
	<path d="M 62.127 45.029 V 19.761 v -1.715 C 62.127 8.632 54.495 1 45.081 1 h 0 c -9.414 0 -17.046 7.632 -17.046 17.046 v 1.715 v 25.444 L 62.127 45.029 z" style="stroke: none; stroke-width: 1; stroke-dasharray: none; stroke-linecap: butt; stroke-linejoin: miter; stroke-miterlimit: 10; fill: rgb(120,114,148); fill-rule: nonzero; opacity: 1;" transform=" matrix(1 0 0 1 0 0) " stroke-linecap="round" />
	<path d="M 57.874 18.071 v 6.78 c 0 7.486 -5.728 15.648 -12.793 15.648 h 0 c -7.066 0 -12.793 -8.162 -12.793 -15.648 v -6.78 c 7.364 -0.025 12.358 -1.014 16.784 -3.159 C 51.575 16.953 54.012 18.046 57.874 18.071 z" style="stroke: none; stroke-width: 1; stroke-dasharray: none; stroke-linecap: butt; stroke-linejoin: miter; stroke-miterlimit: 10; fill: rgb(255,224,196); fill-rule: nonzero; opacity: 1;" transform=" matrix(1 0 0 1 0 0) " stroke-linecap="round" />
	<path d="M 52.773 37.012 l 0.041 2.311 c 0 2.515 1.95 4.671 4.635 5.123 L 45 53.925 l -12.45 -9.48 c 2.685 -0.452 4.635 -2.608 4.635 -5.123 l 0.04 -2.311 H 52.773 z" style="stroke: none; stroke-width: 1; stroke-dasharray: none; stroke-linecap: butt; stroke-linejoin: miter; stroke-miterlimit: 10; fill: rgb(255,224,196); fill-rule: nonzero; opacity: 1;" transform=" matrix(1 0 0 1 0 0) " stroke-linecap="round" />
	<path d="M 57.45 44.445 l 6.936 1.168 c 3.654 0.615 6.308 3.549 6.308 6.972 v 26.753 c 0 2.523 -2.045 4.568 -4.568 4.568 h -2.228 H 23.874 c -2.523 0 -4.568 -2.045 -4.568 -4.568 V 52.585 c 0 -3.423 2.655 -6.356 6.308 -6.972 l 6.936 -1.168 L 45 53.925 L 57.45 44.445 z" style="stroke: none; stroke-width: 1; stroke-dasharray: none; stroke-linecap: butt; stroke-linejoin: miter; stroke-miterlimit: 10; fill: rgb(147,224,127); fill-rule: nonzero; opacity: 1;" transform=" matrix(1 0 0 1 0 0) " stroke-linecap="round" />
	<polygon points="62.02,83.91 27.98,83.91 25.82,60.14 64.18,60.14 " style="stroke: none; stroke-width: 1; stroke-dasharray: none; stroke-linecap: butt; stroke-linejoin: miter; stroke-miterlimit: 10; fill: rgb(206,211,225); fill-rule: nonzero; opacity: 1;" transform="  matrix(1 0 0 1 0 0) "/>
	<rect x="24.43" y="83.91" rx="0" ry="0" width="41.14" height="5.09" style="stroke: none; stroke-width: 1; stroke-dasharray: none; stroke-linecap: butt; stroke-linejoin: miter; stroke-miterlimit: 10; fill: rgb(190,198,218); fill-rule: nonzero; opacity: 1;" transform=" matrix(1 0 0 1 0 0) "/>
	<path d="M 45 54.925 c -0.213 0 -0.427 -0.068 -0.606 -0.204 l -12.45 -9.48 c -0.439 -0.334 -0.524 -0.962 -0.189 -1.401 c 0.334 -0.439 0.961 -0.526 1.401 -0.189 L 45 52.668 l 11.844 -9.019 c 0.439 -0.336 1.066 -0.25 1.401 0.189 c 0.334 0.439 0.249 1.067 -0.19 1.401 l -12.449 9.48 C 45.427 54.856 45.213 54.925 45 54.925 z" style="stroke: none; stroke-width: 1; stroke-dasharray: none; stroke-linecap: butt; stroke-linejoin: miter; stroke-miterlimit: 10; fill: rgb(0,0,0); fill-rule: nonzero; opacity: 1;" transform=" matrix(1 0 0 1 0 0) " stroke-linecap="round" />
	<path d="M 28.035 46.206 c -0.552 0 -1 -0.448 -1 -1 v -27.16 C 27.035 8.095 35.13 0 45.081 0 c 9.95 0 18.046 8.095 18.046 18.046 v 26.983 c 0 0.552 -0.447 1 -1 1 s -1 -0.448 -1 -1 V 18.046 C 61.127 9.198 53.929 2 45.081 2 S 29.035 9.198 29.035 18.046 v 27.16 C 29.035 45.758 28.587 46.206 28.035 46.206 z" style="stroke: none; stroke-width: 1; stroke-dasharray: none; stroke-linecap: butt; stroke-linejoin: miter; stroke-miterlimit: 10; fill: rgb(0,0,0); fill-rule: nonzero; opacity: 1;" transform=" matrix(1 0 0 1 0 0) " stroke-linecap="round" />
	<path d="M 45.081 41.499 c -7.895 0 -13.793 -8.79 -13.793 -16.648 v -6.78 c 0 -0.551 0.446 -0.998 0.997 -1 c 7.086 -0.024 11.977 -0.939 16.351 -3.06 c 0.349 -0.17 0.767 -0.122 1.068 0.125 c 2.139 1.744 4.347 2.91 8.178 2.935 c 0.55 0.003 0.993 0.45 0.993 1 v 6.78 C 58.874 32.709 52.976 41.499 45.081 41.499 z M 33.288 19.062 v 5.789 c 0 6.774 5.152 14.648 11.793 14.648 s 11.793 -7.875 11.793 -14.648 v -5.81 c -3.072 -0.17 -5.462 -1.065 -7.937 -2.96 C 44.638 18.05 39.872 18.959 33.288 19.062 z" style="stroke: none; stroke-width: 1; stroke-dasharray: none; stroke-linecap: butt; stroke-linejoin: miter; stroke-miterlimit: 10; fill: rgb(0,0,0); fill-rule: nonzero; opacity: 1;" transform=" matrix(1 0 0 1 0 0) " stroke-linecap="round" />
	<path d="M 66.127 84.905 H 23.874 c -3.07 0 -5.568 -2.497 -5.568 -5.567 V 52.585 c 0 -3.914 3.004 -7.261 7.143 -7.958 l 6.936 -1.168 c 2.203 -0.371 3.801 -2.11 3.801 -4.136 l 0.04 -2.328 c 0.01 -0.553 0.462 -0.994 1.017 -0.983 c 0.552 0.01 0.992 0.465 0.983 1.017 l -0.04 2.311 c 0 2.989 -2.3 5.558 -5.469 6.092 L 25.78 46.6 c -3.172 0.534 -5.475 3.051 -5.475 5.985 v 26.753 c 0 1.967 1.601 3.567 3.568 3.567 h 42.253 c 1.967 0 3.567 -1.601 3.567 -3.567 V 52.585 c 0 -2.935 -2.303 -5.451 -5.475 -5.985 l -6.937 -1.168 c -3.169 -0.534 -5.469 -3.103 -5.469 -6.109 l -0.041 -2.293 c -0.01 -0.552 0.43 -1.008 0.982 -1.018 c 0.527 -0.002 1.008 0.43 1.018 0.982 l 0.041 2.311 c 0 2.043 1.599 3.783 3.801 4.154 l 6.937 1.168 c 4.139 0.697 7.143 4.044 7.143 7.958 v 26.753 C 71.694 82.408 69.197 84.905 66.127 84.905 z" style="stroke: none; stroke-width: 1; stroke-dasharray: none; stroke-linecap: butt; stroke-linejoin: miter; stroke-miterlimit: 10; fill: rgb(0,0,0); fill-rule: nonzero; opacity: 1;" transform=" matrix(1 0 0 1 0 0) " stroke-linecap="round" />
	<path d="M 62.017 84.905 H 27.983 c -0.517 0 -0.949 -0.395 -0.996 -0.909 l -2.163 -23.767 c -0.025 -0.28 0.068 -0.558 0.258 -0.765 c 0.189 -0.208 0.458 -0.326 0.738 -0.326 H 64.18 c 0.281 0 0.549 0.118 0.738 0.326 c 0.189 0.207 0.283 0.484 0.258 0.765 l -2.163 23.767 C 62.966 84.511 62.534 84.905 62.017 84.905 z M 28.896 82.905 h 32.207 l 1.981 -21.767 H 26.916 L 28.896 82.905 z" style="stroke: none; stroke-width: 1; stroke-dasharray: none; stroke-linecap: butt; stroke-linejoin: miter; stroke-miterlimit: 10; fill: rgb(0,0,0); fill-rule: nonzero; opacity: 1;" transform=" matrix(1 0 0 1 0 0) " stroke-linecap="round" />
	<path d="M 65.569 90 H 24.431 c -0.552 0 -1 -0.447 -1 -1 v -5.095 c 0 -0.553 0.448 -1 1 -1 h 41.139 c 0.553 0 1 0.447 1 1 V 89 C 66.569 89.553 66.122 90 65.569 90 z M 25.431 88 h 39.139 v -3.095 H 25.431 V 88 z" style="stroke: none; stroke-width: 1; stroke-dasharray: none; stroke-linecap: butt; stroke-linejoin: miter; stroke-miterlimit: 10; fill: rgb(0,0,0); fill-rule: nonzero; opacity: 1;" transform=" matrix(1 0 0 1 0 0) " stroke-linecap="round" />
	<path d="M 45.08 70.29 c -0.27 0 -0.52 -0.101 -0.71 -0.29 c -0.09 -0.101 -0.16 -0.21 -0.21 -0.33 c -0.05 -0.12 -0.08 -0.25 -0.08 -0.38 s 0.03 -0.26 0.08 -0.38 c 0.05 -0.12 0.12 -0.23 0.21 -0.33 c 0.1 -0.09 0.21 -0.16 0.33 -0.21 c 0.37 -0.16 0.81 -0.07 1.09 0.21 c 0.09 0.1 0.16 0.21 0.21 0.33 c 0.06 0.12 0.08 0.25 0.08 0.38 c 0 0.27 -0.1 0.52 -0.29 0.71 c -0.1 0.09 -0.21 0.17 -0.33 0.22 C 45.34 70.27 45.21 70.29 45.08 70.29 z" style="stroke: none; stroke-width: 1; stroke-dasharray: none; stroke-linecap: butt; stroke-linejoin: miter; stroke-miterlimit: 10; fill: rgb(0,0,0); fill-rule: nonzero; opacity: 1;" transform=" matrix(1 0 0 1 0 0) " stroke-linecap="round" />
	<path d="M 40.396 25.668 c -0.552 0 -1 -0.448 -1 -1 v -1.822 c 0 -0.552 0.448 -1 1 -1 s 1 0.448 1 1 v 1.822 C 41.396 25.221 40.948 25.668 40.396 25.668 z" style="stroke: none; stroke-width: 1; stroke-dasharray: none; stroke-linecap: butt; stroke-linejoin: miter; stroke-miterlimit: 10; fill: rgb(0,0,0); fill-rule: nonzero; opacity: 1;" transform=" matrix(1 0 0 1 0 0) " stroke-linecap="round" />
	<path d="M 49.604 25.668 c -0.553 0 -1 -0.448 -1 -1 v -1.822 c 0 -0.552 0.447 -1 1 -1 s 1 0.448 1 1 v 1.822 C 50.604 25.221 50.157 25.668 49.604 25.668 z" style="stroke: none; stroke-width: 1; stroke-dasharray: none; stroke-linecap: butt; stroke-linejoin: miter; stroke-miterlimit: 10; fill: rgb(0,0,0); fill-rule: nonzero; opacity: 1;" transform=" matrix(1 0 0 1 0 0) " stroke-linecap="round" />
	<path d="M 45.056 35.215 c -1.502 0 -3.022 -0.544 -4.519 -1.634 c -0.447 -0.325 -0.545 -0.95 -0.22 -1.397 c 0.326 -0.447 0.95 -0.545 1.397 -0.22 c 2.305 1.676 4.385 1.681 6.552 0.016 c 0.438 -0.337 1.065 -0.255 1.402 0.183 c 0.336 0.438 0.255 1.065 -0.184 1.402 C 48.055 34.666 46.564 35.215 45.056 35.215 z" style="stroke: none; stroke-width: 1; stroke-dasharray: none; stroke-linecap: butt; stroke-linejoin: miter; stroke-miterlimit: 10; fill: rgb(0,0,0); fill-rule: nonzero; opacity: 1;" transform=" matrix(1 0 0 1 0 0) " stroke-linecap="round" />
</g>
</g>
</svg>