<?xml version="1.0" encoding="utf-8"?>
<!-- Generator: Adobe Illustrator 22.1.0, SVG Export Plug-In . SVG Version: 6.00 Build 0)  -->
<svg version="1.1" id="Layer_1" xmlns="http://www.w3.org/2000/svg" xmlns:xlink="http://www.w3.org/1999/xlink" x="0px" y="0px"
	 width="850.4px" height="850.4px" viewBox="0 0 850.4 850.4" style="enable-background:new 0 0 850.4 850.4;" xml:space="preserve"
	>
<style type="text/css">
	.st0{fill:#943333;}
	.st1{fill:#ED2123;}
	.st2{fill:#57C7DC;}
	.st3{fill:#EFA638;}
	.st4{fill:#1E9245;}
	.st5{fill:#E81F35;}
	.st6{fill:#649565;}
</style>
<g>
	<path class="st0" d="M339.8,845.4c-0.2,0-0.4-0.2-0.4-0.4V736.1c0-0.2,0.2-0.4,0.4-0.4h141.4c0.2,0,0.4,0.2,0.4,0.4V845
		c0,0.2-0.2,0.4-0.4,0.4H339.8z"/>
	<path class="st1" d="M284.2,369.1c0,10.6-8.6,19.1-19.1,19.1c-10.6,0-19.1-8.6-19.1-19.1s8.6-19.1,19.1-19.1
		C275.6,349.9,284.2,358.5,284.2,369.1z M557.3,349.9c-10.6,0-19.1,8.6-19.1,19.1s8.6,19.1,19.1,19.1s19.1-8.6,19.1-19.1
		S567.9,349.9,557.3,349.9z M191,532.4c-10.6,0-19.1,8.6-19.1,19.1s8.6,19.1,19.1,19.1s19.1-8.6,19.1-19.1S201.6,532.4,191,532.4z
		 M114.5,709.8c-10.6,0-19.1,8.6-19.1,19.1s8.6,19.1,19.1,19.1s19.1-8.6,19.1-19.1S125,709.8,114.5,709.8z M629.7,535.6
		c-10.6,0-19.1,8.6-19.1,19.1s8.6,19.1,19.1,19.1s19.1-8.6,19.1-19.1S640.2,535.6,629.7,535.6z M712.4,713.2
		c-10.6,0-19.1,8.6-19.1,19.1s8.6,19.1,19.1,19.1s19.1-8.6,19.1-19.1S722.9,713.2,712.4,713.2z"/>
	<path class="st2" d="M306.8,295.1c0.2,12.2,10.2,21.9,22.4,21.7c12.2-0.2,21.9-10.2,21.7-22.4c-0.1-8.5-5.1-15.8-12.2-19.3
		c-3.1-1.6-6.6-2.4-10.3-2.3c-4.2,0.1-8.1,1.3-11.4,3.4C310.8,280,306.7,287.1,306.8,295.1z M329.8,313.2c2.2-0.4,4.1-1.4,5.9-2.5
		c1.8-1.2,3.3-2.6,4.7-4.2c2.7-3.2,4.7-7.1,5.5-11.5c0.3,2.2,0,4.5-0.7,6.7c-0.7,2.2-1.9,4.2-3.4,6c-1.5,1.7-3.3,3.3-5.4,4.3
		C334.3,312.9,332,313.5,329.8,313.2z M307,478.9c-0.7,11.7,8.3,21.8,20,22.4c11.7,0.7,21.8-8.3,22.4-20c0.5-8.2-3.7-15.5-10.3-19.4
		c-2.8-1.7-6.1-2.8-9.7-3c-4-0.2-7.8,0.7-11.2,2.4C311.9,464.7,307.4,471.2,307,478.9z M327.8,497.9c2.1-0.3,4.1-1,5.9-2
		c1.8-1,3.4-2.3,4.8-3.7c2.9-2.9,5-6.5,6.1-10.7c0.2,2.2-0.3,4.4-1.2,6.4c-0.9,2-2.1,3.9-3.7,5.5c-1.6,1.6-3.4,2.9-5.4,3.7
		C332.2,497.9,329.9,498.4,327.8,497.9z M299.9,631.3c-0.7,13,9.2,24.2,22.2,24.9c13,0.7,24.2-9.2,24.9-22.2
		c0.5-9.1-4.2-17.3-11.5-21.6c-3.2-1.9-6.8-3.1-10.8-3.3c-4.5-0.3-8.7,0.7-12.4,2.7C305.3,615.5,300.3,622.7,299.9,631.3z
		 M323,652.4c2.4-0.3,4.5-1.1,6.5-2.2c2-1.1,3.8-2.5,5.3-4.2c3.2-3.2,5.5-7.2,6.7-11.8c0.2,2.4-0.3,4.9-1.3,7.1
		c-0.9,2.3-2.4,4.3-4.1,6.1c-1.7,1.7-3.8,3.2-6.1,4.2C327.9,652.5,325.3,652.9,323,652.4z"/>
	<path class="st3" d="M411.8,3.5l18.2,58.3l59.6-13.3l-41.4,44.9l41.4,44.9L430.1,125l-18.2,58.3L393.6,125L334,138.4l41.4-44.9
		L334,48.5l59.6,13.3L411.8,3.5z M394.7,269.6c2.7-2.8,6.2-4.9,10.3-5.9c3.6-0.9,7.2-0.9,10.5-0.1c7.7,1.8,14.2,7.7,16.3,16
		c3,11.8-4,23.8-15.8,26.9s-23.8-4-26.9-15.8C387.1,282.8,389.5,274.9,394.7,269.6z M421.8,299.9c1.8-1.5,3.1-3.4,4.2-5.4
		c1-2.1,1.7-4.3,1.9-6.6c0.2-2.3,0-4.6-0.9-6.7c0.2,4.5-0.7,8.7-2.6,12.5c-0.9,1.9-2.1,3.7-3.6,5.2c-1.4,1.6-3.1,2.9-5.1,3.9
		C417.9,302.5,420.1,301.4,421.8,299.9z M236.7,480.2c2.3-3,5.4-5.4,9.1-6.9c3.3-1.3,6.8-1.7,10.1-1.4c7.6,0.8,14.5,5.7,17.5,13.3
		c4.3,10.9-1,23.3-11.9,27.6c-10.9,4.3-23.3-1-27.6-11.9C231.1,493.7,232.4,485.9,236.7,480.2z M266.2,505.9
		c1.5-1.6,2.6-3.6,3.4-5.7c0.7-2.1,1.1-4.3,1-6.5c-0.1-2.2-0.6-4.4-1.6-6.3c0.8,4.2,0.4,8.4-1,12.2c-0.7,1.9-1.6,3.7-2.8,5.4
		c-1.2,1.7-2.6,3.1-4.5,4.3C262.9,508.9,264.8,507.5,266.2,505.9z M471,467c2.6-2.7,6-4.7,9.9-5.7c3.4-0.9,6.9-0.9,10.1-0.1
		c7.5,1.7,13.7,7.4,15.7,15.4c2.9,11.4-3.9,23-15.3,25.9c-11.4,2.9-23-3.9-25.9-15.3C463.7,479.7,466,472.2,471,467z M497.1,496.2
		c1.7-1.4,3-3.3,4-5.2c1-2,1.6-4.1,1.8-6.3c0.2-2.2,0-4.4-0.8-6.4c0.2,4.3-0.7,8.4-2.5,12c-0.9,1.8-2.1,3.5-3.4,5
		c-1.4,1.5-3,2.8-5,3.7C493.4,498.7,495.4,497.6,497.1,496.2z M221.8,632.7c2.5-3.3,6-6,10.1-7.7c3.7-1.5,7.5-1.9,11.2-1.5
		c8.5,0.9,16.1,6.3,19.5,14.8c4.8,12.1-1.1,25.9-13.3,30.7c-12.1,4.8-25.9-1.1-30.7-13.3C215.5,647.7,216.9,639,221.8,632.7z
		 M254.6,661.3c1.7-1.8,2.9-4,3.7-6.3c0.8-2.3,1.2-4.8,1.1-7.2c-0.1-2.4-0.7-4.9-1.8-7c0.8,4.7,0.4,9.3-1.1,13.6
		c-0.7,2.1-1.8,4.2-3.1,6c-1.3,1.8-2.9,3.5-5,4.8C250.8,664.6,252.9,663.1,254.6,661.3z M482.2,618.1c2.9-3,6.7-5.2,11-6.3
		c3.8-1,7.7-1,11.3-0.1c8.3,1.9,15.2,8.3,17.5,17.1c3.3,12.6-4.3,25.5-17,28.8c-12.6,3.3-25.5-4.3-28.8-17
		C474.1,632.2,476.7,623.8,482.2,618.1z M511.3,650.5c1.9-1.6,3.4-3.6,4.5-5.8c1.1-2.2,1.8-4.6,2-7c0.2-2.4,0-4.9-0.9-7.2
		c0.3,4.8-0.8,9.3-2.8,13.3c-1,2-2.3,3.9-3.8,5.6c-1.5,1.7-3.3,3.1-5.5,4.1C507.1,653.3,509.4,652.1,511.3,650.5z"/>
	<path class="st4" d="M319.3,249c-0.7-0.1-1.4-0.1-2-0.2L385,132.5l4.9-1.1l21.9,70.1l21.9-70.1l6.4,1.4l62.3,107.1
		c-16.4-3.7-33.4-7.4-50.9-7.4c-0.7,0-1.3,0-2,0c-2.9,0.1-5.5,0.2-8,0.4c-10.7,1-21,3.7-30.9,6.3l-0.2,0c-2.8,0.7-5.5,1.5-8.3,2.2
		c-22.1,5.5-43.8,8.4-64.4,8.4C331.6,249.8,325.4,249.6,319.3,249z M511.1,254.7l-0.6-0.2c-0.3,2.3-0.7,6.5-1,8.8
		c6.6,5.6,10,14.3,8.7,23c-1.8,12.5-12.7,22-25.3,22h0c-1.2,0-2.4-0.1-3.6-0.3c-6.8-1-12.8-4.5-16.8-10c-4.1-5.5-5.8-12.2-4.9-19
		c1.2-8.3,6.2-15.2,13.5-19.1l1.6-11.8c-8.9-1.7-20-3.5-31-3.5c-3,0-6,0.1-8.9,0.4c-9.1,0.8-18.3,3.1-27.2,5.5
		c0.8,2.7,2.1,7.4,2.8,9.9c8.3,2.7,14.7,9.4,16.9,17.9c3.5,13.7-4.7,27.6-18.4,31.2c-2.1,0.5-4.3,0.8-6.4,0.8c0,0,0,0,0,0
		c-11.6,0-21.8-7.9-24.7-19.2c-2.1-8.1-0.2-16.4,5.1-22.8c-1.1-4.3-2.4-9.1-3-11.3c-15.7,3-31.2,4.6-46.1,4.9
		c0.2,3.6,0.3,7.2,0.5,10.7c7.4,4.5,12.1,12.5,12.2,21.4c0.1,6.8-2.4,13.3-7.2,18.2c-4.7,4.9-11.1,7.7-18,7.8l-0.4,0
		c-13.9,0-25.3-11.3-25.6-25.1c-0.1-8.3,3.7-16,10.3-20.9l-0.3-13.3c-0.4,0-0.9-0.1-1.3-0.1l-1.5-0.2l-49,84.2
		c1.2-0.2,2.4-0.3,3.6-0.3c13.5,0,24.6,11,24.6,24.6c0,0.4,0,0.7,0,1.1h243.2c0-0.4-0.1-0.7-0.1-1.1c0-13.5,11-24.6,24.6-24.6
		c2.3,0,4.4,0.3,6.5,0.9L511.1,254.7z M302.6,435.7c1.9-0.1,3.9-0.1,5.8-0.1c18,0,35.8,3.1,52.9,6.1l0.3,0.1
		c12.1,2.1,24.6,4.3,36.7,5.4c5.8,0.5,11.8,0.7,17.8,0.7c19.8,0,40.7-2.7,62-8.1c2.2-0.5,4.3-1.1,6.5-1.7l1.5-0.4
		c9.6-2.5,19.6-5.2,30-6.1c2.5-0.2,5-0.4,7.7-0.4c0.6,0,1.3,0,1.9,0c16.9,0,33.4,3.7,49.2,7.2c1.8,0.4,3.6,0.8,5.3,1.2l-25.8-46.1
		c-10-1.1-18.3-8.4-20.9-17.9H288.7c-2.7,9.7-11.1,17-21.4,17.9l-34,60.8c3.5-1.3,7.1-2.6,11-4C262.7,443.5,281.9,436.5,302.6,435.7
		z M588.3,453.9l-3.1-0.7c-0.9-0.2-1.8-0.4-2.7-0.6l-1,8.4c6.4,5.5,9.6,13.8,8.4,22.3c-1.7,12.1-12.2,21.3-24.5,21.3c0,0,0,0,0,0
		c-1.2,0-2.4-0.1-3.5-0.2c-6.6-0.9-12.3-4.4-16.3-9.6s-5.6-11.8-4.7-18.4c1.1-8,5.9-14.7,13-18.4l1.5-11.2
		c-8.6-1.7-19.2-3.3-29.8-3.3c-2.9,0-5.8,0.1-8.5,0.4c-8.7,0.8-17.5,3-26,5.3c0.4,1.5,1.9,6.6,2.7,9.3c8,2.6,14.2,9.1,16.3,17.3
		c3.4,13.2-4.6,26.7-17.8,30.2c-2,0.5-4.1,0.8-6.2,0.8c0,0,0,0,0,0c-11.3,0-21.1-7.6-23.9-18.6c-2-7.8-0.2-15.9,4.9-22l-2.8-10.7
		c-15.1,2.9-29.9,4.4-44.2,4.7l0.1,1.8c0.1,2.8,0.2,5.5,0.4,8.3c7.2,4.4,11.7,12.1,11.8,20.7c0.2,13.6-10.7,24.9-24.3,25.2l-0.4,0
		c-13.4,0-24.5-10.9-24.7-24.3c-0.1-8,3.5-15.5,9.9-20.2l-0.3-12.6c-11.3-1.2-22.7-3.2-32.8-5c-5.1-0.9-10.8-1.9-16.7-2.8
		c-0.1,3-0.2,6.1-0.3,9.1c6.8,4.9,10.7,12.9,10.2,21.5c-0.7,13.1-11.6,23.3-24.7,23.3c0,0,0,0,0,0c-0.5,0-1,0-1.4,0
		c-6.6-0.4-12.7-3.3-17.1-8.2c-4.4-4.9-6.6-11.3-6.2-17.9c0.5-8,4.7-15.2,11.4-19.4l0.6-11.3c-2.6-0.1-5-0.2-7.3-0.2
		c-1.7,0-3.4,0-5,0.1c-16.3,0.6-31.8,5.6-48.7,11.7c0.6,1.4,2.7,6.4,3.9,9.1c8.3,1.6,15.2,7.2,18.3,15.2c2.4,6.2,2.3,12.9-0.3,18.9
		s-7.5,10.7-13.6,13.2c-2.9,1.2-6,1.7-9.1,1.7h0c-10.2,0-19.3-6.1-23-15.7c-3-7.5-2.1-15.7,2.2-22.4c-1.6-4.1-3.5-8.7-4.4-10.8
		c-0.1,0-1.9,0.6-4,1.3l-31.8,56.9c12.8,0.8,23,11.5,23,24.5c0,1.1-0.1,2.1-0.2,3.2h389.7c0-6.8,2.8-12.9,7.2-17.4
		c4.5-4.5,10.6-7.2,17.4-7.2c0.5,0,0.9,0,1.4,0.1L588.3,453.9z M198.4,610.6c10.7-2.9,21.4-6.9,31.7-10.7l0.1,0
		c20.5-7.6,41.7-15.4,64.8-16.3c2.1-0.1,4.3-0.1,6.5-0.1c20,0,39.7,3.5,58.8,6.8l0.3,0.1c12.7,2.2,27.1,4.8,40.9,6
		c6.5,0.6,13.1,0.8,19.8,0.8c22.1,0,45.3-3,69-9c3-0.7,5.9-1.5,8.9-2.3c10.8-2.9,21.8-5.8,33.3-6.8c2.9-0.3,5.8-0.4,8.6-0.4
		c0.7,0,1.4,0,2.1,0c18.8,0,37,4.1,54.7,8c3.8,0.9,7.4,1.7,10.9,2.5c12.2,2.8,22.8,5.3,33.5,5.9l-9-16.1c-1.2,0.2-2.3,0.3-3.6,0.3
		c-11.7,0-21.5-8.2-23.9-19.1H214c-3.5,9.3-12.5,16-23,16c-0.2,0-0.5,0-0.7,0L169.2,614c0.8,0,1.6,0,2.5,0
		C181,614.1,190.2,612.9,198.4,610.6z M649.1,607.6l-2.1,0c-13.9,0-26.6-2.7-41-6c-0.4,3.3-0.8,6.6-1.1,10c7.1,6,10.7,15.2,9.4,24.5
		c-1.9,13.3-13.4,23.3-26.8,23.3c-1.3,0-2.6-0.1-3.9-0.3c-7.2-1-13.5-4.8-17.9-10.6c-4.3-5.8-6.2-12.9-5.2-20.1
		c1.3-8.8,6.6-16.2,14.4-20.3l1.8-13c-9.6-1.9-21.6-3.8-33.5-3.8c-3.2,0-6.4,0.1-9.5,0.4c-9.9,0.9-19.8,3.4-29.4,6l0.8,2.9
		c0.8,2.7,1.5,5.3,2.3,8c8.9,2.8,15.7,9.9,18.1,19.1c3.7,14.5-5,29.3-19.5,33.1c-2.2,0.6-4.5,0.9-6.8,0.9c0,0,0,0,0,0
		c-12.4,0-23.2-8.4-26.2-20.4c-2.2-8.6-0.2-17.5,5.5-24.3l-3.3-12.5c-17,3.2-33.7,5-49.8,5.3l0.5,11.9c8,4.8,12.9,13.3,13.1,22.8
		c0.1,7.3-2.6,14.1-7.6,19.3c-5,5.2-11.8,8.1-19.1,8.3l-0.5,0c-14.7,0-26.9-12-27.1-26.7c-0.1-8.9,3.9-17.1,11-22.3l-0.3-14.6
		c-12.6-1.3-25.4-3.6-36.8-5.6c-6.4-1.1-12.7-2.2-19-3.2l-0.3,10.7c7.6,5.4,11.9,14.2,11.4,23.7c-0.8,14.3-12.7,25.6-27.1,25.6
		c0,0,0,0,0,0c-0.5,0-1,0-1.6,0c-14.9-0.9-26.4-13.7-25.5-28.6c0.5-8.9,5.2-16.7,12.6-21.4l0.7-13.1c-3-0.1-5.8-0.2-8.5-0.2
		c-1.9,0-3.7,0-5.5,0.1c-18.2,0.7-35.6,6.3-54.6,13.2c1.5,3.6,3.1,7.2,4.6,10.7c9.1,1.7,16.8,7.9,20.3,16.7
		c2.7,6.7,2.5,14.1-0.3,20.8c-2.9,6.6-8.2,11.8-14.9,14.4c-3.2,1.3-6.6,1.9-10,1.9c0,0,0,0,0,0c-11.2,0-21.1-6.7-25.2-17.2
		c-3.3-8.3-2.3-17.4,2.5-24.7c-1.8-4.6-4-10-5.1-12.6c-4.2,1.4-7.6,2.4-10.9,3.3c-9.5,2.6-20,4-30.3,4c-2.6,0-5.1-0.1-7.6-0.2
		l-1.7-0.1l-5.7,10.2l-37.9,67.9c11.6,1.9,20.5,12,20.5,24.2c0,0.4,0,0.9-0.1,1.3h548.9c0.9-10.3,8.1-18.7,17.7-21.5L649.1,607.6z"
		/>
	<path class="st5" d="M471,279.7c-1.7,12.1,6.7,23.2,18.7,25c12.1,1.7,23.2-6.7,25-18.7c1.2-8.4-2.5-16.4-9-21
		c-2.8-2-6.1-3.4-9.8-3.9c-4.1-0.6-8.2,0-11.8,1.5C477.3,265.5,472.1,271.8,471,279.7z M490.8,301.2c2.2-0.1,4.3-0.7,6.2-1.6
		c1.9-0.9,3.7-2.1,5.3-3.5c3.2-2.8,5.7-6.3,7.2-10.5c0,2.2-0.7,4.5-1.8,6.5c-1.1,2-2.5,3.8-4.3,5.3c-1.8,1.5-3.8,2.7-6,3.4
		C495.4,301.6,493,301.9,490.8,301.2z M544.5,476.8c-1.7,11.6,6.4,22.4,18,24c11.6,1.7,22.4-6.4,24-18c1.2-8.1-2.4-15.8-8.6-20.2
		c-2.7-2-5.9-3.3-9.4-3.8c-4-0.6-7.9,0-11.3,1.5C550.6,463,545.6,469.1,544.5,476.8z M563.6,497.5c2.2-0.1,4.1-0.7,6-1.5
		c1.8-0.9,3.6-2,5.1-3.3c3.1-2.7,5.5-6.1,6.9-10.1c0,2.2-0.7,4.3-1.7,6.3c-1,2-2.5,3.7-4.1,5.1c-1.7,1.4-3.6,2.6-5.7,3.3
		C568,497.9,565.7,498.1,563.6,497.5z M386.4,491.6c0.2,11.7,9.9,21.1,21.6,20.9c11.7-0.2,21.1-9.9,20.9-21.6
		c-0.1-8.2-4.9-15.2-11.7-18.6c-3-1.5-6.3-2.3-9.9-2.3c-4,0.1-7.8,1.2-10.9,3.2C390.2,477,386.2,483.9,386.4,491.6z M408.5,509
		c2.1-0.4,4-1.3,5.7-2.4c1.7-1.1,3.2-2.5,4.5-4.1c2.6-3.1,4.5-6.8,5.3-11.1c0.3,2.1,0,4.4-0.7,6.5c-0.7,2.1-1.8,4-3.3,5.7
		c-1.4,1.7-3.2,3.1-5.2,4.1C412.9,508.7,410.6,509.3,408.5,509z M563.9,628.9c-1.8,12.9,7.1,24.9,20.1,26.7
		c12.9,1.8,24.9-7.1,26.7-20.1c1.3-9-2.7-17.5-9.6-22.5c-3-2.2-6.6-3.7-10.5-4.2c-4.4-0.6-8.7,0-12.6,1.6
		C570.7,613.7,565.1,620.4,563.9,628.9z M585.2,651.9c2.4-0.1,4.6-0.7,6.7-1.7c2.1-1,4-2.2,5.7-3.7c3.4-3,6.1-6.7,7.7-11.2
		c0,2.4-0.7,4.8-1.9,7c-1.1,2.2-2.7,4.1-4.6,5.7c-1.9,1.6-4,2.9-6.4,3.6C590.1,652.4,587.5,652.6,585.2,651.9z M388.1,645.4
		c0.2,13.1,11,23.4,24,23.2s23.4-11,23.2-24c-0.2-9.1-5.4-16.9-13-20.7c-3.3-1.7-7-2.6-11-2.5c-4.5,0.1-8.6,1.4-12.2,3.6
		C392.4,629.2,388,636.8,388.1,645.4z M412.7,664.7c2.4-0.5,4.4-1.5,6.3-2.7c1.9-1.3,3.6-2.8,5-4.5c2.9-3.5,5-7.6,5.8-12.3
		c0.4,2.4,0,4.9-0.8,7.2c-0.8,2.3-2,4.5-3.6,6.4c-1.6,1.9-3.5,3.5-5.7,4.6C417.6,664.4,415.1,665.1,412.7,664.7z"/>
	<path class="st6" d="M508.6,250.5c-0.4-0.1-0.8-0.2-1.2-0.3c-0.6,4.8-1.1,9.7-1.7,14.5l0,0.2c-2.8-2-6.1-3.4-9.8-3.9
		c-4.1-0.6-8.2,0-11.8,1.5c0.8-5.6,1.5-11.2,2.3-16.8v-0.2c-14.5-3-29.3-5.1-44.1-3.8c-10,0.9-20,3.5-29.6,6.1
		c-0.5,0.1-1.1,0.3-1.6,0.4c1.4,5,2.9,10,4.3,15l0,0.2c-1.6-0.4-3.3-0.6-5-0.6c-0.5,0-0.9,0-1.4,0c-0.4,0-0.7,0-1.1,0.1
		c-0.2,0-0.3,0-0.5,0.1c-0.4,0-0.8,0.1-1.2,0.2c-0.3,0.1-0.6,0.1-0.9,0.2c-0.2,0-0.3,0.1-0.5,0.1c-0.1,0-0.2,0.1-0.3,0.1
		c-0.4,0.1-0.8,0.2-1.1,0.3c-0.5,0.2-1,0.3-1.4,0.5c0,0-0.1,0-0.1,0c-0.4,0.2-0.9,0.4-1.3,0.6c-0.4,0.2-0.8,0.4-1.1,0.6
		c-0.1,0.1-0.3,0.1-0.4,0.2c-0.3,0.2-0.6,0.3-0.8,0.5c-0.1,0.1-0.3,0.2-0.4,0.3c-0.3,0.2-0.7,0.5-1,0.7c-0.3,0.2-0.6,0.5-1,0.8
		c-0.4,0.4-0.8,0.8-1.2,1.2c-1.4-5.4-2.9-10.9-4.3-16.3c-17.9,3.6-35.4,5.5-52.3,5.5c0.2,5.4,0.5,10.7,0.7,16.1l0,0.2
		c-3.1-1.6-6.6-2.4-10.3-2.3c-4.2,0.1-8.1,1.3-11.4,3.4c-0.1-5.6-0.3-11.3-0.4-16.9l-0.2-1.4c-1.4-0.1-2.8-0.3-4.1-0.4l3-5.1
		c1.2,0.1,2.5,0.2,3.7,0.3c26.4,2.2,54.7-0.3,84-7.7c2.8-0.7,5.6-1.4,8.3-2.2c9.9-2.6,20.1-5.3,30.5-6.3c2.6-0.2,5.2-0.4,7.8-0.4
		c17.8-0.3,35.3,3.6,52.3,7.4c1,0.2,2,0.4,3,0.7L508.6,250.5z M582.6,443.7c-2.7-0.6-5.5-1.3-8.4-1.9c-16.4-3.6-33.2-7.4-50.3-7.1
		c-2.5,0-5,0.2-7.5,0.4c-10,0.9-19.9,3.5-29.4,6c-2.7,0.7-5.3,1.4-8,2.1c-28.2,7.1-55.4,9.6-80.9,7.4c-12.4-1.1-24.9-3.3-37.1-5.4
		c-19-3.3-38.6-6.8-58.3-6c-20.2,0.8-39.1,7.7-57.3,14.5c-4.8,1.8-9.8,3.6-14.8,5.3l-3.8,6.7c1.1-0.4,2.3-0.7,3.4-1.1l0.3,0.5
		c2,5,4.1,10.1,6.1,15.1c2.3-3,5.4-5.4,9.1-6.9c3.3-1.3,6.8-1.7,10.1-1.4l-0.1-0.2c-2-4.7-4-9.4-6-14.1
		c17.1-6.3,34.7-12.5,53.2-13.2c5.3-0.2,10.7-0.1,16,0.3l0,0.4c-0.3,5.4-0.6,10.9-0.8,16.3c3.3-1.8,7.1-2.7,11.2-2.4
		c3.5,0.2,6.9,1.3,9.7,3l0-0.2c0.2-4.9,0.3-9.9,0.5-14.8c6.9,1,13.8,2.2,20.7,3.4c11.6,2,23.6,4.1,35.5,5.3l0.2,1.3
		c0.1,5.4,0.3,10.9,0.4,16.3c3.2-2,6.9-3.2,10.9-3.2c3.6-0.1,6.9,0.7,9.9,2.3l0-0.2c-0.2-5.2-0.4-10.3-0.7-15.5
		c16.3,0,33.1-1.8,50.4-5.3c1.4,5.2,2.8,10.5,4.2,15.7c2.6-2.7,6-4.7,9.9-5.7c3.4-0.9,6.9-0.9,10.1-0.1l0-0.2
		c-1.4-4.8-2.8-9.6-4.1-14.4c0.5-0.1,1.1-0.3,1.6-0.4c9.3-2.5,18.9-5,28.5-5.9c14.2-1.3,28.5,0.8,42.5,3.6v0.2
		c-0.7,5.4-1.5,10.8-2.2,16.1c3.5-1.5,7.3-2,11.3-1.5c3.5,0.5,6.7,1.8,9.4,3.8l0-0.2c0.5-4.7,1.1-9.3,1.6-14c2.2,0.5,4.4,1,6.5,1.5
		L582.6,443.7z M644.2,598.7c-14.9-0.5-28.9-4.6-47.2-8.7c-18.2-4.1-36.9-8.2-56-7.9c-2.8,0-5.5,0.2-8.3,0.4
		c-11.2,1-22.1,3.9-32.7,6.7c-3,0.8-5.9,1.6-8.9,2.3c-31.4,7.9-61.6,10.6-89.9,8.2c-13.8-1.2-27.7-3.6-41.2-6
		c-21.1-3.7-42.9-7.6-64.9-6.7c-22.5,0.9-43.5,8.6-63.7,16.1c-10.5,3.9-21.3,7.8-32.2,10.8c-10,2.7-21.2,3.9-32.1,3.5l-3.2,5.7
		c12.3,0.8,25.1-0.4,36.8-3.6c4.6-1.3,9.2-2.7,13.8-4.3l0.3,0.6c2.3,5.6,4.5,11.2,6.8,16.8c2.5-3.3,6-6,10.1-7.7
		c3.7-1.5,7.5-1.9,11.2-1.5l-0.1-0.2c-2.2-5.2-4.5-10.5-6.7-15.7c19-7,38.6-13.9,59.1-14.7c5.9-0.2,11.9-0.1,17.8,0.3l0,0.4
		c-0.3,6-0.6,12.1-0.9,18.1c3.7-2,7.9-2.9,12.4-2.7c4,0.2,7.6,1.4,10.8,3.3l0-0.2c0.2-5.5,0.3-10.9,0.5-16.4
		c7.7,1.1,15.4,2.5,23,3.8c12.9,2.3,26.2,4.6,39.5,5.9l0.2,1.5c0.1,6,0.3,12.1,0.4,18.1c3.5-2.2,7.7-3.5,12.2-3.6
		c3.9-0.1,7.7,0.8,11,2.5v-0.2c-0.2-5.7-0.5-11.5-0.7-17.2c18.1,0,36.8-2,56-5.8c1.5,5.8,3.1,11.7,4.6,17.5c2.9-3,6.7-5.2,11-6.3
		c3.8-1,7.7-1,11.3-0.1l-0.1-0.2c-1.5-5.3-3.1-10.7-4.6-16c0.6-0.2,1.2-0.3,1.8-0.5c10.3-2.7,21-5.6,31.7-6.5
		c15.8-1.4,31.6,0.9,47.2,4.1v0.2c-0.8,6-1.6,12-2.4,17.9c3.8-1.6,8.2-2.3,12.6-1.6c3.9,0.6,7.5,2,10.5,4.2l0-0.2
		c0.6-5.2,1.2-10.4,1.8-15.6c15.9,3.6,29.5,6.8,44.2,6.7L644.2,598.7z"/>
</g>
</svg>
