<svg xmlns="http://www.w3.org/2000/svg" xmlns:xlink="http://www.w3.org/1999/xlink" version="1.1" width="256" height="256" viewBox="0 0 256 256" xml:space="preserve">
<desc>Created with Fabric.js 1.7.22</desc>
<defs>
</defs>
<g transform="translate(128 128) scale(0.72 0.72)" style="">
	<g style="stroke: none; stroke-width: 0; stroke-dasharray: none; stroke-linecap: butt; stroke-linejoin: miter; stroke-miterlimit: 10; fill: none; fill-rule: nonzero; opacity: 1;" transform="translate(-175.05 -175.05000000000004) scale(3.89 3.89)" >
	<circle cx="44.995999999999995" cy="44.995999999999995" r="27.506" style="stroke: none; stroke-width: 1; stroke-dasharray: none; stroke-linecap: butt; stroke-linejoin: miter; stroke-miterlimit: 10; fill: rgb(248,218,127); fill-rule: nonzero; opacity: 1;" transform="  matrix(1 0 0 1 0 0) "/>
	<path d="M 54.873 53.606 H 48.13 c -0.553 0 -1 -0.447 -1 -1 V 37.394 c 0 -0.552 0.447 -1 1 -1 h 6.744 c 0.553 0 1 0.448 1 1 c 0 0.552 -0.447 1 -1 1 H 49.13 v 13.211 h 5.743 c 0.553 0 1 0.447 1 1 C 55.874 53.159 55.426 53.606 54.873 53.606 z" style="stroke: none; stroke-width: 1; stroke-dasharray: none; stroke-linecap: butt; stroke-linejoin: miter; stroke-miterlimit: 10; fill: rgb(0,0,0); fill-rule: nonzero; opacity: 1;" transform=" matrix(1 0 0 1 0 0) " stroke-linecap="round" />
	<path d="M 52.541 46 H 48.13 c -0.553 0 -1 -0.448 -1 -1 s 0.447 -1 1 -1 h 4.411 c 0.553 0 1 0.448 1 1 S 53.094 46 52.541 46 z" style="stroke: none; stroke-width: 1; stroke-dasharray: none; stroke-linecap: butt; stroke-linejoin: miter; stroke-miterlimit: 10; fill: rgb(0,0,0); fill-rule: nonzero; opacity: 1;" transform=" matrix(1 0 0 1 0 0) " stroke-linecap="round" />
	<path d="M 67.876 53.606 h -6.744 c -0.553 0 -1 -0.447 -1 -1 V 37.394 c 0 -0.552 0.447 -1 1 -1 h 6.744 c 0.553 0 1 0.448 1 1 c 0 0.552 -0.447 1 -1 1 h -5.743 v 13.211 h 5.743 c 0.553 0 1 0.447 1 1 C 68.876 53.159 68.429 53.606 67.876 53.606 z" style="stroke: none; stroke-width: 1; stroke-dasharray: none; stroke-linecap: butt; stroke-linejoin: miter; stroke-miterlimit: 10; fill: rgb(0,0,0); fill-rule: nonzero; opacity: 1;" transform=" matrix(1 0 0 1 0 0) " stroke-linecap="round" />
	<path d="M 65.544 46 h -4.411 c -0.553 0 -1 -0.448 -1 -1 s 0.447 -1 1 -1 h 4.411 c 0.553 0 1 0.448 1 1 S 66.096 46 65.544 46 z" style="stroke: none; stroke-width: 1; stroke-dasharray: none; stroke-linecap: butt; stroke-linejoin: miter; stroke-miterlimit: 10; fill: rgb(0,0,0); fill-rule: nonzero; opacity: 1;" transform=" matrix(1 0 0 1 0 0) " stroke-linecap="round" />
	<path d="M 22.124 53.606 c -0.552 0 -1 -0.447 -1 -1 V 37.394 c 0 -0.552 0.448 -1 1 -1 h 6.744 c 0.552 0 1 0.448 1 1 c 0 0.552 -0.448 1 -1 1 h -5.743 v 14.212 C 23.124 53.159 22.676 53.606 22.124 53.606 z" style="stroke: none; stroke-width: 1; stroke-dasharray: none; stroke-linecap: butt; stroke-linejoin: miter; stroke-miterlimit: 10; fill: rgb(0,0,0); fill-rule: nonzero; opacity: 1;" transform=" matrix(1 0 0 1 0 0) " stroke-linecap="round" />
	<path d="M 26.535 46 h -4.411 c -0.552 0 -1 -0.448 -1 -1 s 0.448 -1 1 -1 h 4.411 c 0.552 0 1 0.448 1 1 S 27.087 46 26.535 46 z" style="stroke: none; stroke-width: 1; stroke-dasharray: none; stroke-linecap: butt; stroke-linejoin: miter; stroke-miterlimit: 10; fill: rgb(0,0,0); fill-rule: nonzero; opacity: 1;" transform=" matrix(1 0 0 1 0 0) " stroke-linecap="round" />
	<path d="M 38.292 46 h -4.236 c -0.552 0 -1 -0.448 -1 -1 v -7.606 c 0 -0.552 0.448 -1 1 -1 h 4.236 c 2.155 0 3.908 1.753 3.908 3.909 v 1.789 C 42.201 44.247 40.447 46 38.292 46 z M 35.056 44 h 3.236 c 1.052 0 1.908 -0.856 1.908 -1.908 v -1.789 c 0 -1.052 -0.856 -1.908 -1.908 -1.908 h -3.236 V 44 z" style="stroke: none; stroke-width: 1; stroke-dasharray: none; stroke-linecap: butt; stroke-linejoin: miter; stroke-miterlimit: 10; fill: rgb(0,0,0); fill-rule: nonzero; opacity: 1;" transform=" matrix(1 0 0 1 0 0) " stroke-linecap="round" />
	<path d="M 41.2 53.606 c -0.552 0 -1 -0.447 -1 -1 v -4.698 c 0 -1.052 -0.856 -1.908 -1.908 -1.908 h -3.236 v 6.606 c 0 0.553 -0.448 1 -1 1 s -1 -0.447 -1 -1 V 45 c 0 -0.552 0.448 -1 1 -1 h 4.236 c 2.155 0 3.908 1.753 3.908 3.908 v 4.698 C 42.201 53.159 41.753 53.606 41.2 53.606 z" style="stroke: none; stroke-width: 1; stroke-dasharray: none; stroke-linecap: butt; stroke-linejoin: miter; stroke-miterlimit: 10; fill: rgb(0,0,0); fill-rule: nonzero; opacity: 1;" transform=" matrix(1 0 0 1 0 0) " stroke-linecap="round" />
	<path d="M 45 90 c -2.204 0.001 -4.408 -0.802 -6.125 -2.407 c -1.829 -1.708 -4.449 -2.306 -6.837 -1.561 c -4.486 1.404 -9.335 -0.933 -11.037 -5.315 c -0.906 -2.333 -3.007 -4.008 -5.483 -4.372 c -4.651 -0.685 -8.006 -4.892 -7.638 -9.577 c 0.196 -2.496 -0.97 -4.916 -3.043 -6.319 c -3.892 -2.634 -5.09 -7.881 -2.726 -11.943 c 1.259 -2.163 1.259 -4.85 0 -7.013 c -2.364 -4.062 -1.167 -9.308 2.726 -11.943 c 2.073 -1.403 3.239 -3.824 3.043 -6.319 c -0.368 -4.686 2.987 -8.893 7.638 -9.577 c 2.476 -0.364 4.576 -2.04 5.483 -4.373 c 1.703 -4.381 6.551 -6.714 11.037 -5.315 c 2.387 0.746 5.008 0.148 6.837 -1.56 c 3.435 -3.208 8.818 -3.208 12.25 0 c 0 0 0 0 0 0 c 1.83 1.709 4.451 2.307 6.837 1.56 c 4.487 -1.399 9.334 0.934 11.037 5.316 c 0.905 2.333 3.007 4.008 5.483 4.373 c 4.65 0.684 8.005 4.891 7.638 9.577 c -0.196 2.495 0.97 4.916 3.043 6.319 c 3.892 2.634 5.09 7.88 2.725 11.943 c -1.258 2.163 -1.258 4.851 0 7.013 c 2.365 4.062 1.167 9.309 -2.725 11.943 c -2.073 1.403 -3.239 3.823 -3.043 6.319 c 0.366 4.687 -2.988 8.894 -7.638 9.577 c -2.476 0.364 -4.577 2.04 -5.484 4.372 c -1.702 4.381 -6.548 6.718 -11.036 5.315 c -2.389 -0.744 -5.008 -0.147 -6.837 1.561 C 49.408 89.198 47.204 90 45 90 z M 34.107 83.718 c 2.244 0 4.449 0.841 6.133 2.415 c 2.669 2.493 6.851 2.493 9.519 0 c 2.353 -2.2 5.726 -2.969 8.799 -2.008 c 3.493 1.087 7.254 -0.726 8.575 -4.131 c 1.167 -3.002 3.871 -5.158 7.057 -5.626 c 3.613 -0.531 6.22 -3.801 5.935 -7.442 c -0.252 -3.212 1.248 -6.328 3.916 -8.132 c 3.025 -2.047 3.955 -6.123 2.118 -9.28 c -1.619 -2.783 -1.619 -6.242 0 -9.025 c 1.837 -3.157 0.907 -7.233 -2.118 -9.28 c -2.668 -1.805 -4.168 -4.921 -3.916 -8.132 c 0.285 -3.641 -2.322 -6.91 -5.935 -7.442 c -3.186 -0.469 -5.891 -2.625 -7.057 -5.627 c -1.322 -3.404 -5.082 -5.218 -8.575 -4.13 c -3.073 0.959 -6.446 0.19 -8.799 -2.008 l 0 0 c -2.669 -2.494 -6.851 -2.493 -9.519 0 c -2.354 2.199 -5.724 2.968 -8.799 2.008 c -3.487 -1.09 -7.254 0.726 -8.576 4.13 c -1.166 3.002 -3.87 5.158 -7.056 5.627 c -3.614 0.532 -6.221 3.801 -5.934 7.442 c 0.252 3.211 -1.249 6.327 -3.916 8.132 c -3.025 2.047 -3.955 6.123 -2.118 9.28 c 1.62 2.784 1.62 6.243 0 9.025 c -1.837 3.157 -0.906 7.233 2.118 9.28 c 2.668 1.804 4.168 4.92 3.916 8.132 c -0.286 3.641 2.321 6.91 5.934 7.442 c 3.186 0.468 5.89 2.625 7.056 5.626 c 1.323 3.405 5.091 5.216 8.576 4.131 C 32.316 83.85 33.215 83.718 34.107 83.718 z" style="stroke: none; stroke-width: 1; stroke-dasharray: none; stroke-linecap: butt; stroke-linejoin: miter; stroke-miterlimit: 10; fill: rgb(0,0,0); fill-rule: nonzero; opacity: 1;" transform=" matrix(1 0 0 1 0 0) " stroke-linecap="round" />
	<path d="M 45 78.507 c -8.309 0 -16.279 -3.063 -22.442 -8.626 c -0.41 -0.37 -0.442 -1.002 -0.072 -1.412 c 0.37 -0.41 1.001 -0.443 1.412 -0.072 c 5.795 5.23 13.289 8.11 21.102 8.11 c 17.373 0 31.507 -14.134 31.507 -31.507 S 62.373 13.493 45 13.493 S 13.493 27.627 13.493 45 c 0 4.301 0.851 8.47 2.529 12.389 c 0.217 0.508 -0.018 1.096 -0.526 1.313 c -0.508 0.22 -1.095 -0.019 -1.313 -0.526 c -1.785 -4.17 -2.69 -8.603 -2.69 -13.177 c 0 -18.476 15.031 -33.507 33.507 -33.507 c 18.476 0 33.507 15.031 33.507 33.507 C 78.507 63.476 63.476 78.507 45 78.507 z" style="stroke: none; stroke-width: 1; stroke-dasharray: none; stroke-linecap: butt; stroke-linejoin: miter; stroke-miterlimit: 10; fill: rgb(0,0,0); fill-rule: nonzero; opacity: 1;" transform=" matrix(1 0 0 1 0 0) " stroke-linecap="round" />
	<path d="M 58.966 62.004 H 31.034 c -0.552 0 -1 -0.447 -1 -1 s 0.448 -1 1 -1 h 27.932 c 0.553 0 1 0.447 1 1 S 59.519 62.004 58.966 62.004 z" style="stroke: none; stroke-width: 1; stroke-dasharray: none; stroke-linecap: butt; stroke-linejoin: miter; stroke-miterlimit: 10; fill: rgb(0,0,0); fill-rule: nonzero; opacity: 1;" transform=" matrix(1 0 0 1 0 0) " stroke-linecap="round" />
	<path d="M 58.966 29.997 H 31.034 c -0.552 0 -1 -0.448 -1 -1 c 0 -0.552 0.448 -1 1 -1 h 27.932 c 0.553 0 1 0.448 1 1 C 59.966 29.549 59.519 29.997 58.966 29.997 z" style="stroke: none; stroke-width: 1; stroke-dasharray: none; stroke-linecap: butt; stroke-linejoin: miter; stroke-miterlimit: 10; fill: rgb(0,0,0); fill-rule: nonzero; opacity: 1;" transform=" matrix(1 0 0 1 0 0) " stroke-linecap="round" />
</g>
</g>
</svg>