<svg xmlns="http://www.w3.org/2000/svg" xmlns:xlink="http://www.w3.org/1999/xlink" version="1.1" width="256" height="256" viewBox="0 0 256 256" xml:space="preserve">
<desc>Created with Fabric.js 1.7.22</desc>
<defs>
</defs>
<g transform="translate(128 128) scale(0.72 0.72)" style="">
	<g style="stroke: none; stroke-width: 0; stroke-dasharray: none; stroke-linecap: butt; stroke-linejoin: miter; stroke-miterlimit: 10; fill: none; fill-rule: nonzero; opacity: 1;" transform="translate(-175.05 -175.05000000000004) scale(3.89 3.89)" >
	<path d="M 77.152 54.216 H 12.848 c -1.41 0 -2.553 -1.143 -2.553 -2.553 V 12.979 c 0 -1.41 1.143 -2.553 2.553 -2.553 h 64.304 c 1.41 0 2.553 1.143 2.553 2.553 v 38.683 C 79.705 53.073 78.562 54.216 77.152 54.216 z" style="stroke: none; stroke-width: 1; stroke-dasharray: none; stroke-linecap: butt; stroke-linejoin: miter; stroke-miterlimit: 10; fill: rgb(96,156,214); fill-rule: nonzero; opacity: 1;" transform=" matrix(1 0 0 1 0 0) " stroke-linecap="round" />
	<path d="M 77.817 54.216 H 12.183 c -1.154 0 -2.207 0.66 -2.71 1.699 L 1 73.424 h 88 l -8.473 -17.51 C 80.024 54.876 78.971 54.216 77.817 54.216 z" style="stroke: none; stroke-width: 1; stroke-dasharray: none; stroke-linecap: butt; stroke-linejoin: miter; stroke-miterlimit: 10; fill: rgb(218,237,255); fill-rule: nonzero; opacity: 1;" transform=" matrix(1 0 0 1 0 0) " stroke-linecap="round" />
	<path d="M 73.023 59.406 H 16.977 c -1.073 0 -2.051 0.613 -2.518 1.579 l -1.78 3.678 c -0.337 0.697 0.17 1.507 0.945 1.507 h 62.752 c 0.774 0 1.282 -0.81 0.945 -1.507 l -1.78 -3.678 C 75.074 60.019 74.096 59.406 73.023 59.406 z" style="stroke: none; stroke-width: 1; stroke-dasharray: none; stroke-linecap: butt; stroke-linejoin: miter; stroke-miterlimit: 10; fill: rgb(157,195,229); fill-rule: nonzero; opacity: 1;" transform=" matrix(1 0 0 1 0 0) " stroke-linecap="round" />
	<path d="M 84.26 79.573 H 5.74 c -2.618 0 -4.74 -2.122 -4.74 -4.74 v -1.409 h 88 v 1.409 C 89 77.451 86.878 79.573 84.26 79.573 z" style="stroke: none; stroke-width: 1; stroke-dasharray: none; stroke-linecap: butt; stroke-linejoin: miter; stroke-miterlimit: 10; fill: rgb(182,220,255); fill-rule: nonzero; opacity: 1;" transform=" matrix(1 0 0 1 0 0) " stroke-linecap="round" />
	<rect x="33.79" y="73.42" rx="0" ry="0" width="22.41" height="6.15" style="stroke: none; stroke-width: 1; stroke-dasharray: none; stroke-linecap: butt; stroke-linejoin: miter; stroke-miterlimit: 10; fill: rgb(157,195,229); fill-rule: nonzero; opacity: 1;" transform=" matrix(1 0 0 1 0 0) "/>
	<path d="M 77.152 55.216 H 12.848 c -1.959 0 -3.553 -1.594 -3.553 -3.553 V 12.979 c 0 -1.959 1.594 -3.553 3.553 -3.553 h 64.304 c 1.959 0 3.553 1.594 3.553 3.553 v 38.684 C 80.705 53.622 79.111 55.216 77.152 55.216 z M 12.848 11.427 c -0.856 0 -1.553 0.697 -1.553 1.553 v 38.684 c 0 0.856 0.697 1.553 1.553 1.553 h 64.304 c 0.856 0 1.553 -0.696 1.553 -1.553 V 12.979 c 0 -0.856 -0.696 -1.553 -1.553 -1.553 H 12.848 z" style="stroke: none; stroke-width: 1; stroke-dasharray: none; stroke-linecap: butt; stroke-linejoin: miter; stroke-miterlimit: 10; fill: rgb(41,68,95); fill-rule: nonzero; opacity: 1;" transform=" matrix(1 0 0 1 0 0) " stroke-linecap="round" />
	<path d="M 89 74.425 H 1 c -0.344 0 -0.665 -0.177 -0.847 -0.469 C -0.03 73.664 -0.05 73.299 0.1 72.989 l 8.474 -17.51 c 0.666 -1.375 2.083 -2.264 3.61 -2.264 h 65.634 c 1.527 0 2.944 0.889 3.61 2.264 l 8.473 17.51 c 0.149 0.31 0.13 0.675 -0.053 0.967 C 89.664 74.248 89.345 74.425 89 74.425 z M 2.595 72.425 h 84.811 l -7.778 -16.074 c -0.333 -0.689 -1.044 -1.135 -1.81 -1.135 H 12.183 c -0.766 0 -1.476 0.445 -1.81 1.135 L 2.595 72.425 z" style="stroke: none; stroke-width: 1; stroke-dasharray: none; stroke-linecap: butt; stroke-linejoin: miter; stroke-miterlimit: 10; fill: rgb(41,68,95); fill-rule: nonzero; opacity: 1;" transform=" matrix(1 0 0 1 0 0) " stroke-linecap="round" />
	<path d="M 76.376 67.169 H 13.624 c -0.71 0 -1.359 -0.359 -1.737 -0.961 c -0.377 -0.602 -0.417 -1.342 -0.108 -1.981 l 1.78 -3.678 c 0.63 -1.302 1.971 -2.144 3.417 -2.144 h 56.047 c 1.447 0 2.788 0.842 3.418 2.144 l 1.779 3.678 c 0.31 0.639 0.27 1.38 -0.108 1.981 C 77.735 66.81 77.086 67.169 76.376 67.169 z M 16.977 60.405 c -0.685 0 -1.319 0.398 -1.617 1.015 l -1.78 3.678 l 62.797 0.071 l -1.735 -3.749 c -0.298 -0.616 -0.933 -1.015 -1.617 -1.015 H 16.977 z" style="stroke: none; stroke-width: 1; stroke-dasharray: none; stroke-linecap: butt; stroke-linejoin: miter; stroke-miterlimit: 10; fill: rgb(41,68,95); fill-rule: nonzero; opacity: 1;" transform=" matrix(1 0 0 1 0 0) " stroke-linecap="round" />
	<path d="M 84.26 80.573 H 5.74 c -3.165 0 -5.74 -2.575 -5.74 -5.74 v -1.408 c 0 -0.553 0.448 -1 1 -1 h 88 c 0.553 0 1 0.447 1 1 v 1.408 C 90 77.998 87.425 80.573 84.26 80.573 z M 2 74.425 v 0.408 c 0 2.063 1.678 3.74 3.74 3.74 h 78.52 c 2.063 0 3.74 -1.678 3.74 -3.74 v -0.408 H 2 z" style="stroke: none; stroke-width: 1; stroke-dasharray: none; stroke-linecap: butt; stroke-linejoin: miter; stroke-miterlimit: 10; fill: rgb(41,68,95); fill-rule: nonzero; opacity: 1;" transform=" matrix(1 0 0 1 0 0) " stroke-linecap="round" />
	<path d="M 56.206 80.573 H 33.794 c -0.552 0 -1 -0.447 -1 -1 v -6.148 c 0 -0.553 0.448 -1 1 -1 h 22.412 c 0.553 0 1 0.447 1 1 v 6.148 C 57.206 80.126 56.759 80.573 56.206 80.573 z M 34.794 78.573 h 20.412 v -4.148 H 34.794 V 78.573 z" style="stroke: none; stroke-width: 1; stroke-dasharray: none; stroke-linecap: butt; stroke-linejoin: miter; stroke-miterlimit: 10; fill: rgb(41,68,95); fill-rule: nonzero; opacity: 1;" transform=" matrix(1 0 0 1 0 0) " stroke-linecap="round" />
</g>
</g>
</svg>