<svg xmlns="http://www.w3.org/2000/svg" xmlns:xlink="http://www.w3.org/1999/xlink" version="1.1" width="256" height="256" viewBox="0 0 256 256" xml:space="preserve">
<desc>Created with Fabric.js 1.7.22</desc>
<defs>
</defs>
<g transform="translate(128 128) scale(0.72 0.72)" style="">
	<g style="stroke: none; stroke-width: 0; stroke-dasharray: none; stroke-linecap: butt; stroke-linejoin: miter; stroke-miterlimit: 10; fill: none; fill-rule: nonzero; opacity: 1;" transform="translate(-175.05 -175.05000000000004) scale(3.89 3.89)" >
	<path d="M 69.885 74.084 L 61.57 22.504 c -0.624 -3.871 -4.268 -6.504 -8.14 -5.88 l -39.019 6.29 c -2.696 0.435 -4.529 2.972 -4.095 5.668 l 7.801 48.393 C 19.124 79.72 47.844 76.084 69.885 74.084 z" style="stroke: none; stroke-width: 1; stroke-dasharray: none; stroke-linecap: butt; stroke-linejoin: miter; stroke-miterlimit: 10; fill: rgb(31,159,133); fill-rule: nonzero; opacity: 1;" transform=" matrix(1 0 0 1 0 0) " stroke-linecap="round" />
	<path d="M 53.489 16.615 l 9.171 56.891 l 7.225 0.578 L 61.57 22.504 c -0.624 -3.871 -4.268 -6.504 -8.14 -5.88" style="stroke: none; stroke-width: 1; stroke-dasharray: none; stroke-linecap: butt; stroke-linejoin: miter; stroke-miterlimit: 10; fill: rgb(37,131,113); fill-rule: nonzero; opacity: 1;" transform=" matrix(1 0 0 1 0 0) " stroke-linecap="round" />
	<path d="M 21.808 78.059 l -1.791 0.289 c -0.904 0.146 -1.754 -0.469 -1.9 -1.372 l 0 0 c -0.146 -0.904 0.469 -1.754 1.372 -1.9 l 42.324 -6.823 c 3.839 -0.619 7.452 1.992 8.071 5.83 v 0 c 0.619 3.839 -1.992 7.452 -5.83 8.071 L 21.73 88.978 c -0.904 0.146 -1.754 -0.469 -1.9 -1.372 v 0 c -0.146 -0.904 0.469 -1.754 1.372 -1.9 l 1.791 -0.289 L 21.808 78.059 z" style="stroke: none; stroke-width: 1; stroke-dasharray: none; stroke-linecap: butt; stroke-linejoin: miter; stroke-miterlimit: 10; fill: rgb(37,131,113); fill-rule: nonzero; opacity: 1;" transform=" matrix(1 0 0 1 0 0) " stroke-linecap="round" />
	<path d="M 18.116 77.976 c -0.482 0 -0.907 -0.35 -0.986 -0.841 L 9.329 28.742 c -0.252 -1.568 0.12 -3.14 1.05 -4.427 c 0.93 -1.287 2.305 -2.135 3.873 -2.388 l 39.019 -6.29 c 2.134 -0.344 4.278 0.163 6.033 1.431 c 1.754 1.267 2.909 3.141 3.254 5.277 l 8.314 51.579 c 0.088 0.545 -0.283 1.059 -0.828 1.146 c -0.548 0.089 -1.059 -0.283 -1.146 -0.828 l -8.314 -51.579 c -0.259 -1.609 -1.13 -3.02 -2.45 -3.975 c -1.321 -0.954 -2.932 -1.338 -4.544 -1.077 l -39.019 6.29 c -1.041 0.167 -1.953 0.73 -2.57 1.584 c -0.617 0.854 -0.864 1.897 -0.697 2.937 l 7.801 48.393 c 0.088 0.545 -0.283 1.059 -0.828 1.146 C 18.223 77.972 18.169 77.976 18.116 77.976 z" style="stroke: none; stroke-width: 1; stroke-dasharray: none; stroke-linecap: butt; stroke-linejoin: miter; stroke-miterlimit: 10; fill: rgb(0,0,0); fill-rule: nonzero; opacity: 1;" transform=" matrix(1 0 0 1 0 0) " stroke-linecap="round" />
	<path d="M 50.535 49.748 l -23.637 3.81 c -1.266 0.204 -2.459 -0.657 -2.663 -1.923 l -2.294 -14.23 c -0.204 -1.266 0.657 -2.459 1.923 -2.663 l 23.637 -3.81 c 1.266 -0.204 2.459 0.657 2.663 1.923 l 2.294 14.23 C 52.663 48.352 51.802 49.544 50.535 49.748 z" style="stroke: none; stroke-width: 1; stroke-dasharray: none; stroke-linecap: butt; stroke-linejoin: miter; stroke-miterlimit: 10; fill: rgb(78,222,193); fill-rule: nonzero; opacity: 1;" transform=" matrix(1 0 0 1 0 0) " stroke-linecap="round" />
	<path d="M 63.093 78.953 l -41.588 6.704 l -1.186 -7.358 l 41.588 -6.704 c 2.032 -0.328 3.944 1.054 4.272 3.086 v 0 C 66.506 76.713 65.125 78.625 63.093 78.953 z" style="stroke: none; stroke-width: 1; stroke-dasharray: none; stroke-linecap: butt; stroke-linejoin: miter; stroke-miterlimit: 10; fill: rgb(159,227,213); fill-rule: nonzero; opacity: 1;" transform=" matrix(1 0 0 1 0 0) " stroke-linecap="round" />
	<path d="M 21.465 89.999 c -1.281 0 -2.412 -0.931 -2.622 -2.234 c -0.195 -1.209 0.463 -2.362 1.529 -2.845 l -0.897 -5.564 c -0.457 -0.047 -0.896 -0.214 -1.278 -0.49 c -0.576 -0.415 -0.955 -1.03 -1.067 -1.73 c -0.113 -0.7 0.054 -1.403 0.469 -1.978 c 0.416 -0.575 1.03 -0.954 1.731 -1.067 l 42.324 -6.823 c 2.125 -0.347 4.247 0.162 5.988 1.42 s 2.888 3.118 3.229 5.238 c 0.342 2.12 -0.162 4.247 -1.42 5.988 c -1.258 1.741 -3.118 2.889 -5.238 3.23 L 21.89 89.965 C 21.747 89.987 21.606 89.999 21.465 89.999 z M 20.318 77.299 c 0.209 0 0.414 0.065 0.585 0.189 c 0.215 0.155 0.359 0.39 0.402 0.651 l 1.186 7.358 c 0.088 0.545 -0.283 1.059 -0.828 1.146 l -0.302 0.049 c -0.174 0.028 -0.326 0.121 -0.428 0.264 c -0.103 0.143 -0.144 0.316 -0.116 0.489 c 0.058 0.357 0.395 0.601 0.753 0.544 l 42.324 -6.822 c 1.593 -0.257 2.99 -1.119 3.935 -2.427 c 0.944 -1.309 1.323 -2.906 1.066 -4.499 c -0.257 -1.593 -1.118 -2.99 -2.426 -3.935 c -1.309 -0.944 -2.907 -1.326 -4.499 -1.066 l -42.324 6.823 c -0.173 0.028 -0.325 0.122 -0.428 0.264 c -0.103 0.143 -0.144 0.315 -0.116 0.489 c 0.057 0.357 0.396 0.601 0.753 0.544 l 0.301 -0.049 C 20.212 77.303 20.265 77.299 20.318 77.299 z" style="stroke: none; stroke-width: 1; stroke-dasharray: none; stroke-linecap: butt; stroke-linejoin: miter; stroke-miterlimit: 10; fill: rgb(0,0,0); fill-rule: nonzero; opacity: 1;" transform=" matrix(1 0 0 1 0 0) " stroke-linecap="round" />
	<path d="M 61.812 69.253 c -0.482 0 -0.907 -0.35 -0.986 -0.841 l -6.226 -38.625 c -0.088 -0.545 0.283 -1.059 0.828 -1.146 c 0.546 -0.089 1.059 0.283 1.146 0.828 L 62.8 68.094 c 0.088 0.545 -0.283 1.059 -0.828 1.146 C 61.919 69.249 61.865 69.253 61.812 69.253 z" style="stroke: none; stroke-width: 1; stroke-dasharray: none; stroke-linecap: butt; stroke-linejoin: miter; stroke-miterlimit: 10; fill: rgb(0,0,0); fill-rule: nonzero; opacity: 1;" transform=" matrix(1 0 0 1 0 0) " stroke-linecap="round" />
	<path d="M 21.504 86.657 c -0.209 0 -0.414 -0.065 -0.585 -0.189 c -0.215 -0.155 -0.359 -0.39 -0.402 -0.651 l -1.186 -7.358 c -0.088 -0.545 0.283 -1.059 0.828 -1.146 l 41.588 -6.704 c 2.577 -0.42 5.004 1.343 5.418 3.914 c 0.415 2.572 -1.341 5.003 -3.914 5.419 l 0 0 l -41.588 6.704 C 21.61 86.653 21.557 86.657 21.504 86.657 z M 21.465 79.127 l 0.868 5.384 l 40.601 -6.545 c 0.719 -0.116 1.351 -0.505 1.776 -1.096 c 0.427 -0.59 0.598 -1.311 0.481 -2.03 c -0.116 -0.72 -0.505 -1.35 -1.095 -1.776 c -0.59 -0.426 -1.311 -0.597 -2.03 -0.481 L 21.465 79.127 z M 63.092 78.953 h 0.01 H 63.092 z" style="stroke: none; stroke-width: 1; stroke-dasharray: none; stroke-linecap: butt; stroke-linejoin: miter; stroke-miterlimit: 10; fill: rgb(0,0,0); fill-rule: nonzero; opacity: 1;" transform=" matrix(1 0 0 1 0 0) " stroke-linecap="round" />
	<path d="M 26.526 54.589 c -1.601 0 -3.016 -1.164 -3.278 -2.795 l -2.294 -14.23 c -0.142 -0.876 0.067 -1.755 0.586 -2.475 c 0.52 -0.72 1.289 -1.194 2.165 -1.335 l 23.637 -3.81 c 1.818 -0.293 3.518 0.943 3.809 2.752 l 2.294 14.23 c 0.291 1.81 -0.943 3.517 -2.752 3.809 l -23.637 3.81 C 26.879 54.574 26.702 54.589 26.526 54.589 z M 47.872 31.902 c -0.069 0 -0.14 0.005 -0.211 0.017 l -23.637 3.81 c -0.349 0.056 -0.655 0.245 -0.862 0.531 c -0.207 0.287 -0.29 0.636 -0.233 0.985 l 2.294 14.23 c 0.116 0.721 0.801 1.216 1.516 1.096 l 23.637 -3.81 l 0 0 c 0.721 -0.116 1.212 -0.797 1.096 -1.517 l -2.294 -14.23 C 49.073 32.365 48.51 31.902 47.872 31.902 z" style="stroke: none; stroke-width: 1; stroke-dasharray: none; stroke-linecap: butt; stroke-linejoin: miter; stroke-miterlimit: 10; fill: rgb(0,0,0); fill-rule: nonzero; opacity: 1;" transform=" matrix(1 0 0 1 0 0) " stroke-linecap="round" />
	<path d="M 25.633 61.311 c -0.482 0 -0.907 -0.35 -0.986 -0.841 c -0.088 -0.545 0.283 -1.059 0.828 -1.146 l 28.223 -4.55 c 0.546 -0.089 1.059 0.283 1.146 0.828 c 0.088 0.545 -0.283 1.059 -0.828 1.146 l -28.223 4.55 C 25.739 61.307 25.686 61.311 25.633 61.311 z" style="stroke: none; stroke-width: 1; stroke-dasharray: none; stroke-linecap: butt; stroke-linejoin: miter; stroke-miterlimit: 10; fill: rgb(0,0,0); fill-rule: nonzero; opacity: 1;" transform=" matrix(1 0 0 1 0 0) " stroke-linecap="round" />
	<path d="M 26.737 68.165 c -0.482 0 -0.907 -0.35 -0.986 -0.841 c -0.088 -0.545 0.283 -1.059 0.828 -1.146 l 28.223 -4.55 c 0.541 -0.091 1.059 0.283 1.146 0.828 c 0.088 0.545 -0.283 1.059 -0.828 1.146 l -28.223 4.55 C 26.844 68.162 26.79 68.165 26.737 68.165 z" style="stroke: none; stroke-width: 1; stroke-dasharray: none; stroke-linecap: butt; stroke-linejoin: miter; stroke-miterlimit: 10; fill: rgb(0,0,0); fill-rule: nonzero; opacity: 1;" transform=" matrix(1 0 0 1 0 0) " stroke-linecap="round" />
	<path d="M 54.448 23.572 c -0.482 0 -0.907 -0.35 -0.986 -0.841 l -0.96 -5.957 c -0.088 -0.545 0.283 -1.059 0.828 -1.146 c 0.542 -0.092 1.059 0.283 1.146 0.828 l 0.96 5.957 c 0.088 0.545 -0.283 1.059 -0.828 1.146 C 54.554 23.568 54.501 23.572 54.448 23.572 z" style="stroke: none; stroke-width: 1; stroke-dasharray: none; stroke-linecap: butt; stroke-linejoin: miter; stroke-miterlimit: 10; fill: rgb(0,0,0); fill-rule: nonzero; opacity: 1;" transform=" matrix(1 0 0 1 0 0) " stroke-linecap="round" />
	<path d="M 61.839 72.821 l 17.497 -49.228 c 1.313 -3.695 -0.617 -7.755 -4.312 -9.068 L 37.783 1.288 c -2.573 -0.915 -5.4 0.43 -6.315 3.003 L 15.052 50.478 C 14.616 53.368 41.549 63.982 61.839 72.821 z" style="stroke: none; stroke-width: 1; stroke-dasharray: none; stroke-linecap: butt; stroke-linejoin: miter; stroke-miterlimit: 10; fill: rgb(236,167,66); fill-rule: nonzero; opacity: 1;" transform=" matrix(1 0 0 1 0 0) " stroke-linecap="round" />
	<path d="M 75.08 14.544 L 55.781 68.842 l 6.058 3.979 l 17.497 -49.228 c 1.313 -3.695 -0.617 -7.755 -4.312 -9.068" style="stroke: none; stroke-width: 1; stroke-dasharray: none; stroke-linecap: butt; stroke-linejoin: miter; stroke-miterlimit: 10; fill: rgb(200,140,53); fill-rule: nonzero; opacity: 1;" transform=" matrix(1 0 0 1 0 0) " stroke-linecap="round" />
	<path d="M 17.767 53.202 l -1.709 -0.608 c -0.862 -0.306 -1.313 -1.254 -1.006 -2.116 l 0 0 c 0.306 -0.862 1.254 -1.313 2.116 -1.006 l 40.395 14.357 c 3.664 1.302 5.578 5.328 4.276 8.992 l 0 0 c -1.302 3.664 -5.328 5.578 -8.992 4.276 L 12.452 62.739 c -0.862 -0.306 -1.313 -1.254 -1.006 -2.116 l 0 0 c 0.306 -0.862 1.254 -1.313 2.116 -1.006 l 1.709 0.608 L 17.767 53.202 z" style="stroke: none; stroke-width: 1; stroke-dasharray: none; stroke-linecap: butt; stroke-linejoin: miter; stroke-miterlimit: 10; fill: rgb(200,140,53); fill-rule: nonzero; opacity: 1;" transform=" matrix(1 0 0 1 0 0) " stroke-linecap="round" />
	<path d="M 61.838 73.821 c -0.111 0 -0.225 -0.019 -0.335 -0.058 c -0.52 -0.186 -0.792 -0.757 -0.607 -1.277 l 17.498 -49.228 c 1.126 -3.169 -0.536 -6.664 -3.705 -7.791 L 37.447 2.23 c -0.992 -0.354 -2.063 -0.299 -3.015 0.154 c -0.951 0.453 -1.67 1.249 -2.022 2.241 L 15.994 50.812 c -0.186 0.52 -0.758 0.789 -1.277 0.607 c -0.52 -0.186 -0.792 -0.757 -0.607 -1.277 L 30.525 3.956 c 0.532 -1.496 1.615 -2.696 3.049 -3.377 c 1.434 -0.683 3.047 -0.765 4.543 -0.233 l 37.241 13.236 c 4.208 1.496 6.415 6.137 4.92 10.345 L 62.781 73.156 C 62.635 73.565 62.25 73.821 61.838 73.821 z" style="stroke: none; stroke-width: 1; stroke-dasharray: none; stroke-linecap: butt; stroke-linejoin: miter; stroke-miterlimit: 10; fill: rgb(0,0,0); fill-rule: nonzero; opacity: 1;" transform=" matrix(1 0 0 1 0 0) " stroke-linecap="round" />
	<path d="M 56.566 42.181 l -22.56 -8.018 c -1.209 -0.43 -1.84 -1.758 -1.411 -2.967 l 4.827 -13.582 c 0.43 -1.209 1.758 -1.84 2.967 -1.411 l 22.56 8.018 c 1.209 0.43 1.84 1.758 1.411 2.967 L 59.532 40.77 C 59.103 41.979 57.774 42.61 56.566 42.181 z" style="stroke: none; stroke-width: 1; stroke-dasharray: none; stroke-linecap: butt; stroke-linejoin: miter; stroke-miterlimit: 10; fill: rgb(245,205,148); fill-rule: nonzero; opacity: 1;" transform=" matrix(1 0 0 1 0 0) " stroke-linecap="round" />
	<path d="M 53.543 73.827 L 13.85 59.719 l 2.496 -7.022 l 39.693 14.108 c 1.939 0.689 2.952 2.82 2.263 4.759 v 0 C 57.612 73.503 55.482 74.516 53.543 73.827 z" style="stroke: none; stroke-width: 1; stroke-dasharray: none; stroke-linecap: butt; stroke-linejoin: miter; stroke-miterlimit: 10; fill: rgb(245,205,148); fill-rule: nonzero; opacity: 1;" transform=" matrix(1 0 0 1 0 0) " stroke-linecap="round" />
	<path d="M 55.197 78.504 c -0.892 0 -1.798 -0.149 -2.685 -0.465 L 12.117 63.682 c -1.38 -0.49 -2.104 -2.014 -1.614 -3.394 c 0.41 -1.154 1.537 -1.859 2.708 -1.759 l 1.888 -5.312 c -0.961 -0.667 -1.4 -1.92 -0.991 -3.073 c 0.491 -1.382 2.013 -2.107 3.394 -1.614 l 40.394 14.357 c 4.178 1.485 6.369 6.093 4.884 10.269 C 61.612 76.446 58.506 78.504 55.197 78.504 z M 13.007 60.52 c -0.096 0 -0.192 0.021 -0.282 0.064 c -0.159 0.075 -0.278 0.208 -0.337 0.373 c -0.122 0.342 0.058 0.719 0.399 0.84 l 40.394 14.357 c 1.519 0.541 3.159 0.457 4.617 -0.236 s 2.558 -1.912 3.098 -3.433 c 0.541 -1.52 0.457 -3.16 -0.236 -4.617 c -0.693 -1.457 -1.912 -2.558 -3.433 -3.098 L 16.833 50.414 c -0.343 -0.123 -0.718 0.058 -0.839 0.398 c -0.121 0.342 0.058 0.719 0.399 0.84 l 0.286 0.101 c 0.25 0.089 0.456 0.273 0.57 0.513 c 0.114 0.24 0.128 0.516 0.04 0.766 l -2.496 7.023 c -0.089 0.25 -0.273 0.454 -0.513 0.568 c -0.24 0.114 -0.515 0.126 -0.765 0.039 l -0.288 -0.103 C 13.155 60.533 13.081 60.52 13.007 60.52 z" style="stroke: none; stroke-width: 1; stroke-dasharray: none; stroke-linecap: butt; stroke-linejoin: miter; stroke-miterlimit: 10; fill: rgb(0,0,0); fill-rule: nonzero; opacity: 1;" transform=" matrix(1 0 0 1 0 0) " stroke-linecap="round" />
	<path d="M 57.562 64.829 c -0.111 0 -0.225 -0.019 -0.335 -0.058 c -0.52 -0.186 -0.792 -0.757 -0.607 -1.277 l 13.103 -36.864 c 0.185 -0.521 0.758 -0.793 1.277 -0.607 c 0.52 0.185 0.792 0.757 0.607 1.277 L 58.505 64.164 C 58.359 64.573 57.973 64.829 57.562 64.829 z" style="stroke: none; stroke-width: 1; stroke-dasharray: none; stroke-linecap: butt; stroke-linejoin: miter; stroke-miterlimit: 10; fill: rgb(0,0,0); fill-rule: nonzero; opacity: 1;" transform=" matrix(1 0 0 1 0 0) " stroke-linecap="round" />
	<path d="M 54.786 75.042 c -0.524 0 -1.057 -0.088 -1.578 -0.273 L 13.515 60.662 c -0.52 -0.186 -0.792 -0.757 -0.607 -1.277 l 2.496 -7.023 c 0.089 -0.25 0.273 -0.454 0.513 -0.568 c 0.24 -0.114 0.515 -0.127 0.765 -0.039 l 39.693 14.108 c 2.455 0.873 3.743 3.582 2.87 6.037 C 58.556 73.832 56.73 75.042 54.786 75.042 z M 15.127 59.112 l 38.751 13.772 l 0 0 c 1.418 0.505 2.978 -0.24 3.481 -1.655 c 0.504 -1.417 -0.239 -2.978 -1.655 -3.482 L 16.953 53.973 L 15.127 59.112 z" style="stroke: none; stroke-width: 1; stroke-dasharray: none; stroke-linecap: butt; stroke-linejoin: miter; stroke-miterlimit: 10; fill: rgb(0,0,0); fill-rule: nonzero; opacity: 1;" transform=" matrix(1 0 0 1 0 0) " stroke-linecap="round" />
	<path d="M 57.346 43.316 c -0.375 0 -0.752 -0.064 -1.115 -0.193 l -22.56 -8.018 c -1.726 -0.614 -2.631 -2.518 -2.018 -4.244 l 4.827 -13.581 c 0.613 -1.727 2.518 -2.631 4.244 -2.019 l 22.56 8.018 c 0.836 0.297 1.507 0.902 1.888 1.704 c 0.382 0.801 0.428 1.704 0.131 2.54 l -4.828 13.582 c -0.298 0.836 -0.902 1.506 -1.704 1.888 C 58.318 43.208 57.833 43.316 57.346 43.316 z M 39.613 17.069 c -0.544 0 -1.056 0.339 -1.248 0.88 l -4.827 13.581 c -0.245 0.687 0.116 1.445 0.803 1.689 l 22.56 8.018 l 0 0 c 0.331 0.118 0.689 0.101 1.011 -0.052 c 0.318 -0.152 0.56 -0.418 0.678 -0.751 l 4.828 -13.582 c 0.118 -0.333 0.1 -0.692 -0.052 -1.011 c -0.151 -0.319 -0.419 -0.56 -0.752 -0.678 l -22.56 -8.018 C 39.909 17.094 39.759 17.069 39.613 17.069 z" style="stroke: none; stroke-width: 1; stroke-dasharray: none; stroke-linecap: butt; stroke-linejoin: miter; stroke-miterlimit: 10; fill: rgb(0,0,0); fill-rule: nonzero; opacity: 1;" transform=" matrix(1 0 0 1 0 0) " stroke-linecap="round" />
	<path d="M 56.589 50.051 c -0.111 0 -0.225 -0.019 -0.335 -0.058 l -26.936 -9.574 c -0.52 -0.185 -0.792 -0.757 -0.607 -1.277 c 0.185 -0.52 0.756 -0.791 1.277 -0.607 l 26.936 9.574 c 0.52 0.186 0.792 0.757 0.607 1.277 C 57.385 49.795 57 50.051 56.589 50.051 z" style="stroke: none; stroke-width: 1; stroke-dasharray: none; stroke-linecap: butt; stroke-linejoin: miter; stroke-miterlimit: 10; fill: rgb(0,0,0); fill-rule: nonzero; opacity: 1;" transform=" matrix(1 0 0 1 0 0) " stroke-linecap="round" />
	<path d="M 54.264 56.593 c -0.111 0 -0.225 -0.019 -0.335 -0.058 L 26.992 46.96 c -0.52 -0.186 -0.792 -0.757 -0.607 -1.277 c 0.186 -0.521 0.755 -0.793 1.277 -0.607 l 26.937 9.575 c 0.52 0.186 0.792 0.757 0.607 1.277 C 55.061 56.337 54.676 56.593 54.264 56.593 z" style="stroke: none; stroke-width: 1; stroke-dasharray: none; stroke-linecap: butt; stroke-linejoin: miter; stroke-miterlimit: 10; fill: rgb(0,0,0); fill-rule: nonzero; opacity: 1;" transform=" matrix(1 0 0 1 0 0) " stroke-linecap="round" />
	<path d="M 73.059 21.231 c -0.111 0 -0.225 -0.019 -0.335 -0.058 c -0.521 -0.185 -0.792 -0.757 -0.607 -1.277 l 2.02 -5.686 c 0.185 -0.521 0.759 -0.792 1.277 -0.607 c 0.52 0.185 0.792 0.757 0.607 1.277 l -2.02 5.686 C 73.856 20.975 73.47 21.231 73.059 21.231 z" style="stroke: none; stroke-width: 1; stroke-dasharray: none; stroke-linecap: butt; stroke-linejoin: miter; stroke-miterlimit: 10; fill: rgb(0,0,0); fill-rule: nonzero; opacity: 1;" transform=" matrix(1 0 0 1 0 0) " stroke-linecap="round" />
</g>
</g>
</svg>