<svg xmlns="http://www.w3.org/2000/svg" xmlns:xlink="http://www.w3.org/1999/xlink" version="1.1" width="256" height="256" viewBox="0 0 256 256" xml:space="preserve">
<desc>Created with Fabric.js 1.7.22</desc>
<defs>
</defs>
<g transform="translate(128 128) scale(0.72 0.72)" style="">
	<g style="stroke: none; stroke-width: 0; stroke-dasharray: none; stroke-linecap: butt; stroke-linejoin: miter; stroke-miterlimit: 10; fill: none; fill-rule: nonzero; opacity: 1;" transform="translate(-175.05 -175.05000000000004) scale(3.89 3.89)" >
	<circle cx="45" cy="41.64" r="32.5" style="stroke: none; stroke-width: 1; stroke-dasharray: none; stroke-linecap: butt; stroke-linejoin: miter; stroke-miterlimit: 10; fill: rgb(248,218,127); fill-rule: nonzero; opacity: 1;" transform="  matrix(1 0 0 1 0 0) "/>
	<path d="M 59.508 46.69 c -0.161 0 -0.322 -0.039 -0.47 -0.118 c -0.326 -0.173 -0.53 -0.513 -0.53 -0.882 v -6.773 h -5.4 c -0.553 0 -1 -0.448 -1 -1 V 13.912 c 0 -0.552 0.447 -1 1 -1 H 89 c 0.553 0 1 0.448 1 1 v 24.005 c 0 0.552 -0.447 1 -1 1 H 71.359 L 60.066 46.52 C 59.898 46.633 59.703 46.689 59.508 46.69 z M 54.107 36.917 h 5.4 c 0.553 0 1 0.448 1 1 v 5.895 l 9.987 -6.724 c 0.165 -0.111 0.359 -0.17 0.559 -0.17 H 88 V 14.912 H 54.107 V 36.917 z" style="stroke: none; stroke-width: 1; stroke-dasharray: none; stroke-linecap: butt; stroke-linejoin: miter; stroke-miterlimit: 10; fill: rgb(0,0,0); fill-rule: nonzero; opacity: 1;" transform=" matrix(1 0 0 1 0 0) " stroke-linecap="round" />
	<path d="M 64.08 89.621 H 26.189 c -0.552 0 -1 -0.447 -1 -1 V 63.279 c 0 -0.553 0.448 -1 1 -1 H 64.08 c 0.553 0 1 0.447 1 1 v 25.342 C 65.08 89.174 64.633 89.621 64.08 89.621 z M 27.189 87.621 H 63.08 V 64.279 H 27.189 V 87.621 z" style="stroke: none; stroke-width: 1; stroke-dasharray: none; stroke-linecap: butt; stroke-linejoin: miter; stroke-miterlimit: 10; fill: rgb(0,0,0); fill-rule: nonzero; opacity: 1;" transform=" matrix(1 0 0 1 0 0) " stroke-linecap="round" />
	<path d="M 45.134 81.282 c -0.239 0 -0.478 -0.085 -0.668 -0.256 L 31.746 69.61 c -0.411 -0.369 -0.445 -1.001 -0.076 -1.412 c 0.367 -0.41 1 -0.447 1.412 -0.076 l 12.052 10.816 l 12.052 -10.816 c 0.41 -0.369 1.043 -0.336 1.412 0.076 c 0.369 0.411 0.335 1.043 -0.076 1.412 l -12.72 11.416 C 45.612 81.197 45.373 81.282 45.134 81.282 z" style="stroke: none; stroke-width: 1; stroke-dasharray: none; stroke-linecap: butt; stroke-linejoin: miter; stroke-miterlimit: 10; fill: rgb(0,0,0); fill-rule: nonzero; opacity: 1;" transform=" matrix(1 0 0 1 0 0) " stroke-linecap="round" />
	<path d="M 9.125 15.969 c -2.041 0 -4.343 -1.188 -6.484 -3.345 c -2.176 -2.16 -3.364 -4.482 -3.342 -6.537 c 0.012 -1.174 0.425 -2.206 1.161 -2.907 c 0.039 -0.039 0.087 -0.082 0.136 -0.122 c 0.047 -0.04 0.096 -0.076 0.146 -0.111 c 0.067 -0.047 0.114 -0.075 0.162 -0.103 c 0.002 -0.001 0.033 -0.02 0.035 -0.02 c 0.046 -0.025 0.092 -0.047 0.138 -0.069 l 0.05 -0.023 c 0.043 -0.018 0.087 -0.035 0.132 -0.051 l 0.056 -0.019 c 0.043 -0.014 0.088 -0.026 0.133 -0.038 l 0.063 -0.016 C 1.556 2.6 1.597 2.593 1.639 2.586 l 0.074 -0.01 c 0.04 -0.005 0.081 -0.009 0.122 -0.012 l 0.148 -0.005 l 0.05 0.001 C 2.061 2.56 2.09 2.561 2.119 2.563 c 0.038 0.003 0.075 0.005 0.112 0.01 c 0.031 0.003 0.06 0.008 0.09 0.013 C 2.355 2.591 2.39 2.597 2.426 2.605 l 0.086 0.021 c 0.053 0.014 0.081 0.021 0.11 0.03 c 0.031 0.01 0.06 0.02 0.089 0.031 c 0.051 0.018 0.077 0.028 0.103 0.039 c 0.031 0.013 0.063 0.028 0.094 0.043 C 2.953 2.789 2.975 2.8 2.997 2.811 c 0.031 0.016 0.06 0.034 0.09 0.052 l 0.033 0.02 l 0 0 l 0.054 0.033 C 3.21 2.94 3.242 2.964 3.273 2.989 C 3.276 2.991 3.341 3.04 3.344 3.042 c 0.056 0.047 0.109 0.094 0.16 0.144 l 1.151 1.151 C 4.707 4.389 4.755 4.443 4.8 4.498 C 4.81 4.51 4.822 4.526 4.834 4.542 c 0.042 0.056 0.068 0.09 0.091 0.125 c 0.011 0.016 0.023 0.037 0.035 0.057 l 0 0 l 0.02 0.034 c 0.018 0.029 0.035 0.058 0.051 0.088 c 0.011 0.021 0.023 0.046 0.035 0.071 c 0.026 0.055 0.04 0.084 0.053 0.114 c 0.01 0.025 0.019 0.05 0.028 0.075 l 0 0 L 5.16 5.142 c 0.01 0.026 0.019 0.053 0.027 0.079 c 0.009 0.029 0.017 0.06 0.025 0.091 C 5.225 5.36 5.232 5.388 5.238 5.416 c 0.007 0.035 0.013 0.07 0.019 0.105 c 0.005 0.031 0.009 0.06 0.013 0.09 c 0.004 0.038 0.007 0.076 0.01 0.113 c 0.002 0.028 0.003 0.057 0.004 0.086 C 5.284 5.85 5.284 5.889 5.283 5.928 L 5.279 6.006 C 5.277 6.048 5.273 6.089 5.268 6.13 L 5.257 6.204 C 5.251 6.246 5.243 6.288 5.233 6.331 L 5.217 6.398 c -0.01 0.041 -0.022 0.085 -0.036 0.128 C 5.18 6.53 5.167 6.567 5.165 6.572 c -0.02 0.058 -0.037 0.103 -0.056 0.148 C 5.107 6.723 5.094 6.752 5.092 6.755 C 5.066 6.812 5.044 6.858 5.019 6.903 C 5.017 6.908 5.004 6.93 5.001 6.934 c -0.031 0.053 -0.059 0.1 -0.09 0.146 C 4.859 7.153 4.823 7.201 4.784 7.248 C 4.744 7.296 4.701 7.344 4.655 7.39 L 3.949 8.096 l 3.222 3.222 l 0.707 -0.707 c 0.046 -0.046 0.094 -0.088 0.142 -0.129 c 0.047 -0.039 0.096 -0.075 0.145 -0.11 c 0.067 -0.047 0.115 -0.076 0.162 -0.103 c 0.002 -0.001 0.035 -0.021 0.038 -0.022 c 0.044 -0.024 0.09 -0.046 0.136 -0.067 l 0.044 -0.021 c 0.048 -0.02 0.093 -0.037 0.138 -0.053 l 0.056 -0.019 c 0.044 -0.014 0.089 -0.026 0.133 -0.038 l 0.067 -0.016 c 0.039 -0.009 0.082 -0.016 0.124 -0.023 L 9.134 10 c 0.044 -0.005 0.085 -0.009 0.126 -0.012 l 0.148 -0.005 L 9.54 9.988 c 0.041 0.003 0.078 0.006 0.115 0.01 c 0.031 0.003 0.06 0.008 0.09 0.013 c 0.035 0.005 0.07 0.011 0.105 0.018 c 0.034 0.007 0.063 0.015 0.093 0.023 c 0.041 0.01 0.073 0.019 0.104 0.029 c 0.031 0.01 0.062 0.021 0.094 0.033 c 0.045 0.016 0.07 0.025 0.096 0.036 c 0.032 0.013 0.063 0.028 0.095 0.043 c 0.043 0.02 0.067 0.032 0.089 0.044 c 0.03 0.016 0.059 0.033 0.088 0.051 l 0.034 0.02 l 0 0 l 0.056 0.035 c 0.034 0.023 0.068 0.048 0.101 0.074 c 0.003 0.003 0.066 0.05 0.069 0.052 c 0.054 0.045 0.107 0.092 0.158 0.143 l 1.151 1.151 c 0.051 0.051 0.099 0.105 0.144 0.159 c 0.012 0.015 0.024 0.031 0.035 0.046 c 0.042 0.055 0.067 0.089 0.09 0.123 c 0.012 0.017 0.024 0.037 0.036 0.058 l 0.022 0.037 l 0 0 c 0.017 0.028 0.033 0.055 0.048 0.084 c 0.011 0.021 0.022 0.043 0.032 0.065 c 0.028 0.059 0.043 0.089 0.055 0.12 c 0.011 0.026 0.021 0.053 0.03 0.079 c 0.019 0.051 0.029 0.08 0.038 0.109 c 0.01 0.033 0.018 0.065 0.027 0.097 c 0.009 0.037 0.017 0.067 0.024 0.097 c 0.008 0.038 0.014 0.074 0.019 0.11 l 0.013 0.089 c 0.004 0.038 0.007 0.076 0.01 0.114 c 0.002 0.027 0.003 0.056 0.004 0.085 c 0.001 0.039 0.001 0.078 -0.001 0.118 l -0.004 0.078 c -0.003 0.042 -0.007 0.083 -0.012 0.124 l -0.011 0.075 c -0.006 0.04 -0.014 0.082 -0.023 0.125 l -0.013 0.056 c -0.014 0.055 -0.026 0.099 -0.04 0.142 c -0.001 0.003 -0.013 0.038 -0.014 0.041 c -0.021 0.06 -0.038 0.105 -0.057 0.15 c -0.002 0.004 -0.014 0.03 -0.016 0.034 c -0.027 0.06 -0.05 0.106 -0.075 0.151 c -0.002 0.004 -0.016 0.028 -0.018 0.032 c -0.031 0.053 -0.059 0.099 -0.09 0.145 c -0.051 0.073 -0.087 0.121 -0.126 0.167 c -0.04 0.049 -0.083 0.097 -0.129 0.142 C 11.374 15.557 10.322 15.969 9.125 15.969 z M 11.925 13.733 c 0.009 -0.029 0.017 -0.059 0.025 -0.089 l 0.011 -0.046 c 0.005 -0.025 0.011 -0.053 0.015 -0.082 l 0.007 -0.048 c 0.003 -0.029 0.006 -0.056 0.008 -0.084 l 0.003 -0.051 c 0.001 -0.03 0.001 -0.056 0 -0.082 l -0.003 -0.056 c -0.002 -0.026 -0.003 -0.051 -0.006 -0.076 l -0.009 -0.06 c -0.004 -0.027 -0.008 -0.05 -0.013 -0.073 l -0.105 -0.312 c -0.001 -0.001 -0.016 -0.035 -0.017 -0.036 c 0 0 -0.016 -0.033 -0.016 -0.033 l -0.056 -0.095 c -0.029 -0.045 -0.045 -0.066 -0.061 -0.086 l -0.028 -0.037 c -0.039 -0.049 -0.071 -0.085 -0.105 -0.119 l -1.151 -1.151 c -0.034 -0.034 -0.07 -0.066 -0.107 -0.096 l -0.041 -0.031 c -0.028 -0.022 -0.049 -0.038 -0.07 -0.052 c -0.002 -0.001 -0.049 -0.029 -0.051 -0.031 l -0.379 -0.161 l -0.204 -0.039 c -0.025 -0.003 -0.051 -0.005 -0.076 -0.006 l -0.056 -0.003 l -0.134 0.003 c -0.027 0.002 -0.055 0.005 -0.083 0.008 l -0.048 0.007 c -0.029 0.005 -0.057 0.01 -0.086 0.016 L 9.055 10.74 c -0.038 0.01 -0.067 0.018 -0.096 0.027 L 8.922 10.78 l 0 0 c -0.031 0.011 -0.062 0.022 -0.092 0.035 c -0.061 0.028 -0.092 0.043 -0.122 0.06 c -0.055 0.032 -0.086 0.051 -0.117 0.072 c -0.048 0.034 -0.081 0.058 -0.112 0.085 c -0.033 0.027 -0.065 0.055 -0.096 0.086 l -0.778 0.778 c -0.233 0.232 -0.635 0.231 -0.866 0 L 3.372 8.529 c -0.239 -0.239 -0.239 -0.627 0 -0.866 l 0.779 -0.779 C 4.182 6.854 4.21 6.821 4.237 6.789 c 0.027 -0.032 0.051 -0.065 0.074 -0.098 c 0.031 -0.045 0.05 -0.076 0.068 -0.107 C 4.41 6.53 4.424 6.499 4.438 6.469 l 0 0 l 0.016 -0.033 c 0.013 -0.029 0.023 -0.059 0.034 -0.088 l 0 0 L 4.5 6.31 C 4.51 6.28 4.518 6.251 4.525 6.221 l 0.011 -0.045 C 4.542 6.148 4.547 6.12 4.552 6.092 l 0.007 -0.051 C 4.563 6.015 4.565 5.988 4.567 5.96 l 0.002 -0.052 c 0.001 -0.029 0.001 -0.056 0 -0.082 L 4.567 5.77 C 4.565 5.744 4.563 5.719 4.56 5.695 l -0.071 -0.31 c 0 0 -0.013 -0.037 -0.014 -0.037 l -0.04 -0.094 C 4.435 5.252 4.419 5.219 4.419 5.217 L 4.344 5.086 C 4.315 5.04 4.299 5.019 4.283 4.998 L 4.256 4.961 C 4.216 4.912 4.185 4.877 4.151 4.843 L 3 3.692 C 2.966 3.658 2.93 3.626 2.892 3.595 L 2.853 3.566 C 2.821 3.542 2.8 3.526 2.78 3.512 C 2.778 3.511 2.732 3.484 2.731 3.483 C 2.697 3.462 2.68 3.451 2.662 3.442 L 2.627 3.425 C 2.579 3.402 2.559 3.392 2.539 3.384 L 2.278 3.303 C 2.258 3.299 2.235 3.295 2.211 3.292 L 2.148 3.282 C 2.123 3.279 2.097 3.278 2.072 3.276 L 1.984 3.273 L 1.882 3.276 C 1.855 3.278 1.827 3.281 1.8 3.284 L 1.751 3.291 c -0.028 0.005 -0.058 0.01 -0.087 0.016 c 0 0 -0.041 0.01 -0.042 0.01 c -0.03 0.007 -0.059 0.015 -0.087 0.024 l 0 0 L 1.497 3.355 C 1.466 3.366 1.436 3.377 1.406 3.39 C 1.344 3.419 1.313 3.434 1.283 3.45 C 1.227 3.482 1.196 3.501 1.166 3.522 C 1.117 3.556 1.085 3.58 1.054 3.606 C 1.021 3.633 0.989 3.661 0.958 3.692 C 0.357 4.265 0.023 5.116 0.013 6.095 c -0.02 1.86 1.093 4 3.133 6.024 c 2.007 2.023 4.13 3.135 5.979 3.135 c 1 0 1.868 -0.334 2.444 -0.939 c 0.037 -0.037 0.065 -0.069 0.092 -0.101 c 0.026 -0.032 0.051 -0.065 0.074 -0.098 c 0.032 -0.045 0.05 -0.077 0.069 -0.109 c 0.031 -0.054 0.045 -0.084 0.059 -0.114 M 11.878 13.861 c 0.013 -0.029 0.024 -0.059 0.034 -0.089" style="stroke: none; stroke-width: 1; stroke-dasharray: none; stroke-linecap: butt; stroke-linejoin: miter; stroke-miterlimit: 10; fill: rgb(0,0,0); fill-rule: nonzero; opacity: 1;" transform=" matrix(2.8008 0 0 2.8008 1.9639999999999986 1.9639999999999702) " stroke-linecap="round" />
	<path d="M 22.162 9.554 c -0.317 0 -0.628 -0.15 -0.823 -0.43 c -0.314 -0.454 -0.202 -1.077 0.252 -1.392 c 6.933 -4.81 15.074 -7.353 23.543 -7.353 c 7.167 0 14.229 1.863 20.421 5.387 c 0.48 0.273 0.648 0.884 0.375 1.364 s -0.888 0.647 -1.363 0.375 c -5.893 -3.353 -12.612 -5.125 -19.433 -5.125 c -8.06 0 -15.807 2.419 -22.404 6.996 C 22.557 9.496 22.358 9.554 22.162 9.554 z" style="stroke: none; stroke-width: 1; stroke-dasharray: none; stroke-linecap: butt; stroke-linejoin: miter; stroke-miterlimit: 10; fill: rgb(0,0,0); fill-rule: nonzero; opacity: 1;" transform=" matrix(1 0 0 1 0 0) " stroke-linecap="round" />
	<path d="M 18.21 72.782 c -0.238 0 -0.476 -0.084 -0.667 -0.256 C 8.8 64.688 3.785 53.463 3.785 41.729 c 0 -0.552 0.448 -1 1 -1 s 1 0.448 1 1 c 0 11.167 4.772 21.85 13.093 29.31 c 0.411 0.368 0.446 1 0.077 1.412 C 18.758 72.67 18.485 72.782 18.21 72.782 z" style="stroke: none; stroke-width: 1; stroke-dasharray: none; stroke-linecap: butt; stroke-linejoin: miter; stroke-miterlimit: 10; fill: rgb(0,0,0); fill-rule: nonzero; opacity: 1;" transform=" matrix(1 0 0 1 0 0) " stroke-linecap="round" />
	<path d="M 72.053 72.786 c -0.274 0 -0.547 -0.112 -0.745 -0.333 c -0.368 -0.411 -0.334 -1.043 0.078 -1.412 c 6.916 -6.197 11.432 -14.648 12.715 -23.797 c 0.077 -0.547 0.582 -0.931 1.129 -0.852 c 0.547 0.076 0.929 0.582 0.852 1.129 c -1.349 9.615 -6.094 18.497 -13.361 25.01 C 72.529 72.702 72.291 72.786 72.053 72.786 z" style="stroke: none; stroke-width: 1; stroke-dasharray: none; stroke-linecap: butt; stroke-linejoin: miter; stroke-miterlimit: 10; fill: rgb(0,0,0); fill-rule: nonzero; opacity: 1;" transform=" matrix(1 0 0 1 0 0) " stroke-linecap="round" />
	<path d="M 64.589 27.268 h -1.52 c -0.553 0 -1 -0.448 -1 -1 s 0.447 -1 1 -1 h 1.52 c 0.553 0 1 0.448 1 1 S 65.142 27.268 64.589 27.268 z" style="stroke: none; stroke-width: 1; stroke-dasharray: none; stroke-linecap: butt; stroke-linejoin: miter; stroke-miterlimit: 10; fill: rgb(0,0,0); fill-rule: nonzero; opacity: 1;" transform=" matrix(1 0 0 1 0 0) " stroke-linecap="round" />
	<path d="M 72.589 27.268 h -1.52 c -0.553 0 -1 -0.448 -1 -1 s 0.447 -1 1 -1 h 1.52 c 0.553 0 1 0.448 1 1 S 73.142 27.268 72.589 27.268 z" style="stroke: none; stroke-width: 1; stroke-dasharray: none; stroke-linecap: butt; stroke-linejoin: miter; stroke-miterlimit: 10; fill: rgb(0,0,0); fill-rule: nonzero; opacity: 1;" transform=" matrix(1 0 0 1 0 0) " stroke-linecap="round" />
	<path d="M 80.589 27.268 h -1.52 c -0.553 0 -1 -0.448 -1 -1 s 0.447 -1 1 -1 h 1.52 c 0.553 0 1 0.448 1 1 S 81.142 27.268 80.589 27.268 z" style="stroke: none; stroke-width: 1; stroke-dasharray: none; stroke-linecap: butt; stroke-linejoin: miter; stroke-miterlimit: 10; fill: rgb(0,0,0); fill-rule: nonzero; opacity: 1;" transform=" matrix(1 0 0 1 0 0) " stroke-linecap="round" />
</g>
</g>
</svg>